# Blender v2.91.2 OBJ File: 'Letters.blend'
# www.blender.org
mtllib H.mtl
o Text.018_Text.069
v 0.165436 -0.260726 0.210000
v 0.117739 0.024645 0.210000
v 0.117739 -0.013118 0.210000
v 0.117739 -0.260726 0.210000
v 0.165436 0.254962 0.210000
v 0.168024 -0.263314 0.209659
v 0.168024 0.257550 0.209659
v 0.170436 -0.265726 0.208660
v 0.115151 -0.263314 0.209659
v 0.112739 -0.265726 0.208660
v 0.115151 -0.015706 0.209659
v 0.112739 -0.018118 0.208660
v -0.115272 -0.015706 0.209659
v -0.112860 -0.018118 0.208660
v -0.115272 -0.263314 0.209659
v -0.117861 -0.013118 0.210000
v -0.165190 -0.260726 0.210000
v -0.117861 0.024645 0.210000
v -0.117861 -0.260726 0.210000
v -0.117861 0.254962 0.210000
v -0.115272 0.027234 0.209659
v -0.115272 0.257550 0.209659
v -0.112860 0.029645 0.208660
v 0.115151 0.027234 0.209659
v 0.112739 0.029645 0.208660
v 0.115151 0.257550 0.209659
v 0.112739 0.259962 0.208660
v 0.117739 0.254962 0.210000
v 0.110668 0.262033 0.207071
v 0.170436 0.259962 0.208660
v 0.172507 0.262033 0.207071
v 0.174096 0.263622 0.205000
v 0.172507 -0.267797 0.207071
v 0.174096 -0.269386 0.205000
v 0.110668 -0.267797 0.207071
v 0.109079 -0.269386 0.205000
v 0.110668 -0.020189 0.207071
v 0.109079 -0.021778 0.205000
v -0.110790 -0.020189 0.207071
v -0.109200 -0.021778 0.205000
v -0.110790 -0.267797 0.207071
v -0.109200 -0.269386 0.205000
v -0.112860 -0.265726 0.208660
v -0.172261 -0.267797 0.207071
v -0.173850 -0.269386 0.205000
v -0.170190 -0.265726 0.208660
v -0.172261 0.262033 0.207071
v -0.173850 0.263622 0.205000
v -0.170190 0.259962 0.208660
v -0.110790 0.262033 0.207071
v -0.109200 0.263622 0.205000
v -0.112860 0.259962 0.208660
v -0.110790 0.031717 0.207071
v -0.109200 0.033306 0.205000
v 0.110668 0.031717 0.207071
v 0.109079 0.033306 0.205000
v 0.108080 0.034305 0.202588
v 0.109079 0.263622 0.205000
v 0.108080 0.264621 0.202588
v 0.107739 0.264962 0.200000
v 0.175095 0.264621 0.202588
v 0.175436 0.264962 0.200000
v 0.175095 -0.270385 0.202588
v 0.175436 -0.270726 0.200000
v 0.108080 -0.270385 0.202588
v 0.107739 -0.270726 0.200000
v 0.108080 -0.022777 0.202588
v 0.107739 -0.023118 0.200000
v -0.108201 -0.022777 0.202588
v -0.107861 -0.023118 0.200000
v -0.108201 -0.270385 0.202588
v -0.107861 -0.270726 0.200000
v -0.174849 -0.270385 0.202588
v -0.175189 -0.270726 0.200000
v -0.174849 0.264621 0.202588
v -0.175189 0.264962 0.200000
v -0.108201 0.264621 0.202588
v -0.107861 0.264962 0.200000
v -0.108201 0.034305 0.202588
v -0.107861 0.034645 0.200000
v -0.107861 0.034646 -0.200000
v 0.107739 0.034645 0.200000
v 0.107739 0.034646 -0.200000
v 0.108080 0.034305 -0.202588
v 0.107739 0.264962 -0.200000
v 0.108080 0.264621 -0.202588
v 0.175436 0.264962 -0.200000
v 0.175095 0.264621 -0.202588
v 0.175436 -0.270726 -0.200000
v 0.175095 -0.270385 -0.202588
v 0.107739 -0.270726 -0.200000
v 0.108080 -0.270385 -0.202588
v 0.107739 -0.023118 -0.200000
v 0.108080 -0.022777 -0.202588
v -0.107861 -0.023118 -0.200000
v -0.108201 -0.022777 -0.202588
v -0.107861 -0.270726 -0.200000
v -0.108201 -0.270385 -0.202588
v -0.175189 -0.270726 -0.200000
v -0.174849 -0.270385 -0.202588
v -0.175189 0.264962 -0.200000
v -0.174849 0.264621 -0.202588
v -0.107861 0.264962 -0.200000
v -0.108201 0.264621 -0.202588
v -0.109200 0.263622 -0.205000
v -0.108201 0.034305 -0.202588
v -0.109200 0.033306 -0.205000
v -0.110790 0.031717 -0.207071
v 0.109079 0.033306 -0.205000
v 0.110668 0.031717 -0.207071
v 0.109079 0.263622 -0.205000
v 0.110668 0.262033 -0.207071
v 0.174096 0.263622 -0.205000
v 0.172507 0.262033 -0.207071
v 0.174096 -0.269386 -0.205000
v 0.172507 -0.267797 -0.207071
v 0.109079 -0.269386 -0.205000
v 0.110668 -0.267797 -0.207071
v 0.109079 -0.021778 -0.205000
v 0.110668 -0.020189 -0.207071
v -0.109200 -0.021778 -0.205000
v -0.110790 -0.020189 -0.207071
v -0.109200 -0.269386 -0.205000
v -0.110790 -0.267797 -0.207071
v -0.173850 -0.269386 -0.205000
v -0.172261 -0.267797 -0.207071
v -0.173850 0.263622 -0.205000
v -0.172261 0.262033 -0.207071
v -0.170190 0.259962 -0.208660
v -0.110790 0.262033 -0.207071
v -0.112860 0.259962 -0.208660
v -0.115272 0.257550 -0.209659
v -0.112860 0.029646 -0.208660
v -0.115272 0.027234 -0.209659
v 0.112739 0.029646 -0.208660
v 0.115151 0.027234 -0.209659
v 0.112739 0.259962 -0.208660
v 0.115151 0.257550 -0.209659
v 0.170436 0.259962 -0.208660
v 0.168024 0.257550 -0.209659
v 0.170436 -0.265726 -0.208660
v 0.168024 -0.263314 -0.209659
v 0.112739 -0.265726 -0.208660
v 0.115151 -0.263314 -0.209659
v 0.112739 -0.018118 -0.208660
v 0.115151 -0.015706 -0.209659
v -0.112860 -0.018118 -0.208660
v -0.115272 -0.015706 -0.209659
v -0.112860 -0.265726 -0.208660
v -0.115272 -0.263314 -0.209659
v -0.170190 -0.265726 -0.208660
v -0.167778 -0.263314 -0.209659
v -0.167778 0.257550 -0.209659
v -0.165190 -0.260726 -0.210000
v -0.117861 0.254962 -0.210000
v -0.117861 -0.260726 -0.210000
v -0.165190 0.254962 -0.210000
v -0.117861 0.024646 -0.210000
v -0.117861 -0.013118 -0.210000
v 0.117739 -0.013118 -0.210000
v 0.117739 0.024646 -0.210000
v 0.117739 0.254962 -0.210000
v 0.165436 0.254962 -0.210000
v 0.165436 -0.260726 -0.210000
v 0.117739 -0.260726 -0.210000
v -0.167778 0.257550 0.209659
v -0.167778 -0.263314 0.209659
v -0.165190 0.254962 0.210000
vt 0.909091 0.000000
vt 0.090909 0.000000
vt 0.000000 0.000000
vt 0.272727 0.000000
vt 0.181818 0.000000
vt 0.545455 0.000000
vt 0.454545 0.000000
vt 0.363636 0.000000
vt 0.818182 0.000000
vt 0.727273 0.000000
vt 1.000000 0.000000
vt 0.818182 0.000000
vt 0.545455 0.000000
vt 0.727273 0.000000
vt 0.636364 0.000000
vt 0.454545 0.000000
vt 0.363636 0.000000
vt 0.272727 0.000000
vt 0.909091 0.000000
vt 0.000000 0.000000
vt 1.000000 0.000000
vt 0.090909 0.000000
vt 0.181818 0.000000
vt 0.636364 0.000000
vt 0.083333 1.000000
vt 0.166667 1.000000
vt 0.166667 0.923077
vt 0.083333 0.923077
vt 0.000000 1.000000
vt 0.000000 0.923077
vt 0.083333 0.846154
vt 0.000000 0.846154
vt 0.166667 0.846154
vt 0.250000 0.923077
vt 0.250000 0.846154
vt 0.250000 1.000000
vt 0.333333 0.923077
vt 0.333333 0.846154
vt 0.333333 1.000000
vt 0.416667 0.923077
vt 0.416667 0.846154
vt 0.416667 1.000000
vt 0.500000 1.000000
vt 0.500000 0.923077
vt 0.666667 1.000000
vt 0.750000 1.000000
vt 0.750000 0.923077
vt 0.666667 0.923077
vt 0.833333 1.000000
vt 0.833333 0.923077
vt 0.750000 0.846154
vt 0.666667 0.846154
vt 0.833333 0.846154
vt 0.916667 0.923077
vt 0.916667 0.846154
vt 0.916667 1.000000
vt 1.000000 0.923077
vt 1.000000 0.846154
vt 1.000000 1.000000
vt 0.916667 0.769231
vt 0.833333 0.769231
vt 1.000000 0.769231
vt 0.083333 0.769231
vt 0.000000 0.769231
vt 1.000000 0.692308
vt 0.916667 0.692308
vt 0.083333 0.692308
vt 0.000000 0.692308
vt 0.166667 0.769231
vt 0.166667 0.692308
vt 0.250000 0.769231
vt 0.250000 0.692308
vt 0.333333 0.769231
vt 0.333333 0.692308
vt 0.416667 0.769231
vt 0.416667 0.692308
vt 0.500000 0.769231
vt 0.500000 0.692308
vt 0.500000 0.846154
vt 0.583333 0.769231
vt 0.583333 0.692308
vt 0.583333 0.846154
vt 0.666667 0.769231
vt 0.666667 0.692308
vt 0.750000 0.769231
vt 0.750000 0.692308
vt 0.833333 0.692308
vt 0.833333 0.615385
vt 0.750000 0.615385
vt 0.916667 0.615385
vt 1.000000 0.615385
vt 0.916667 0.538462
vt 0.833333 0.538462
vt 1.000000 0.538462
vt 0.000000 0.615385
vt 0.083333 0.615385
vt 0.083333 0.538462
vt 0.000000 0.538462
vt 0.166667 0.615385
vt 0.166667 0.538462
vt 0.250000 0.615385
vt 0.250000 0.538462
vt 0.333333 0.615385
vt 0.333333 0.538462
vt 0.416667 0.615385
vt 0.416667 0.538462
vt 0.500000 0.615385
vt 0.500000 0.538462
vt 0.583333 0.615385
vt 0.583333 0.538462
vt 0.666667 0.615385
vt 0.666667 0.538462
vt 0.750000 0.538462
vt 0.750000 0.461538
vt 0.666667 0.461538
vt 0.833333 0.461538
vt 0.916667 0.461538
vt 0.833333 0.384615
vt 0.750000 0.384615
vt 0.916667 0.384615
vt 1.000000 0.461538
vt 1.000000 0.384615
vt 0.000000 0.461538
vt 0.083333 0.461538
vt 0.083333 0.384615
vt 0.000000 0.384615
vt 0.166667 0.461538
vt 0.166667 0.384615
vt 0.250000 0.461538
vt 0.250000 0.384615
vt 0.333333 0.461538
vt 0.333333 0.384615
vt 0.416667 0.461538
vt 0.416667 0.384615
vt 0.500000 0.461538
vt 0.500000 0.384615
vt 0.583333 0.461538
vt 0.583333 0.384615
vt 0.666667 0.384615
vt 0.666667 0.307692
vt 0.583333 0.307692
vt 0.750000 0.307692
vt 0.833333 0.307692
vt 0.750000 0.230769
vt 0.666667 0.230769
vt 0.833333 0.230769
vt 0.916667 0.307692
vt 0.916667 0.230769
vt 1.000000 0.307692
vt 1.000000 0.230769
vt 0.000000 0.307692
vt 0.083333 0.307692
vt 0.083333 0.230769
vt 0.000000 0.230769
vt 0.166667 0.307692
vt 0.166667 0.230769
vt 0.250000 0.307692
vt 0.250000 0.230769
vt 0.333333 0.307692
vt 0.333333 0.230769
vt 0.416667 0.307692
vt 0.416667 0.230769
vt 0.500000 0.307692
vt 0.500000 0.230769
vt 0.583333 0.230769
vt 0.583333 0.153846
vt 0.500000 0.153846
vt 0.666667 0.153846
vt 0.750000 0.153846
vt 0.666667 0.076923
vt 0.583333 0.076923
vt 0.750000 0.076923
vt 0.833333 0.153846
vt 0.833333 0.076923
vt 0.916667 0.153846
vt 0.916667 0.076923
vt 1.000000 0.153846
vt 1.000000 0.076923
vt 0.000000 0.153846
vt 0.083333 0.153846
vt 0.083333 0.076923
vt 0.000000 0.076923
vt 0.166667 0.153846
vt 0.166667 0.076923
vt 0.250000 0.153846
vt 0.250000 0.076923
vt 0.333333 0.153846
vt 0.333333 0.076923
vt 0.416667 0.153846
vt 0.416667 0.076923
vt 0.500000 0.076923
vt 0.500000 0.000000
vt 0.416667 0.000000
vt 0.583333 0.000000
vt 0.333333 0.000000
vt 0.250000 0.000000
vt 0.916667 0.000000
vt 0.833333 0.000000
vt 0.750000 0.000000
vt 0.166667 0.000000
vt 0.083333 0.000000
vt 1.000000 0.000000
vt 0.666667 0.000000
vt 0.583333 0.923077
vt 0.583333 1.000000
vn 0.0000 -0.0000 1.0000
vn 0.0000 0.0000 -1.0000
vn 0.0491 -0.0491 0.9976
vn -0.0491 -0.0491 0.9976
vn -0.1646 -0.1646 0.9725
vn 0.1646 -0.1646 0.9725
vn 0.0491 0.0491 0.9976
vn 0.1646 0.1646 0.9725
vn 0.2996 -0.2995 0.9058
vn 0.2996 0.2995 0.9058
vn -0.2996 -0.2995 0.9058
vn -0.0996 -0.0996 0.9900
vn -0.2368 -0.2368 0.9423
vn -0.0164 -0.0164 0.9997
vn 0.0996 -0.0996 0.9900
vn 0.2368 -0.2368 0.9423
vn 0.0164 -0.0164 0.9997
vn 0.0164 0.0164 0.9997
vn 0.0996 0.0996 0.9900
vn -0.0164 0.0164 0.9997
vn -0.0996 0.0996 0.9900
vn 0.2368 0.2368 0.9423
vn -0.2368 0.2368 0.9423
vn -0.1646 0.1646 0.9725
vn -0.2996 0.2995 0.9058
vn -0.0491 0.0491 0.9976
vn -0.4371 0.4371 0.7860
vn -0.3816 0.3815 0.8419
vn 0.4371 0.4371 0.7860
vn 0.4371 -0.4371 0.7860
vn 0.5679 0.5679 0.5957
vn -0.5679 0.5679 0.5957
vn 0.5679 -0.5679 0.5957
vn -0.4371 -0.4371 0.7860
vn -0.5679 -0.5679 0.5958
vn -0.3816 -0.3815 0.8419
vn -0.5292 -0.5292 0.6632
vn 0.3816 -0.3815 0.8419
vn 0.5292 -0.5292 0.6632
vn -0.5679 -0.5679 0.5957
vn 0.3816 0.3815 0.8419
vn 0.5292 0.5292 0.6632
vn -0.5292 0.5292 0.6632
vn -0.6546 0.6546 0.3780
vn 0.6546 0.6546 0.3780
vn -0.6684 0.6684 0.3262
vn 0.6684 0.6684 0.3262
vn -0.7043 0.7043 0.0883
vn -0.7038 0.7038 0.0959
vn 0.7043 0.7043 0.0883
vn 0.6684 -0.6684 0.3262
vn 0.7043 -0.7043 0.0883
vn -0.6684 -0.6684 0.3262
vn -0.7043 -0.7043 0.0883
vn -0.6546 -0.6546 0.3780
vn -0.7038 -0.7038 0.0959
vn 0.6546 -0.6546 0.3780
vn 0.7038 -0.7038 0.0959
vn 0.7038 0.7038 0.0959
vn 0.7038 0.7038 -0.0959
vn 0.7043 0.7043 -0.0883
vn -0.7038 0.7038 -0.0959
vn -0.7043 0.7043 -0.0883
vn -0.6546 0.6546 -0.3780
vn 0.6546 0.6546 -0.3780
vn -0.6684 0.6684 -0.3262
vn 0.6684 0.6684 -0.3262
vn 0.7043 -0.7043 -0.0883
vn 0.6684 -0.6684 -0.3262
vn -0.7043 -0.7043 -0.0883
vn -0.6684 -0.6684 -0.3262
vn -0.7038 -0.7038 -0.0959
vn -0.6546 -0.6546 -0.3780
vn 0.7038 -0.7038 -0.0959
vn 0.6546 -0.6546 -0.3780
vn 0.5679 0.5679 -0.5957
vn -0.5679 0.5679 -0.5957
vn 0.5292 0.5292 -0.6632
vn -0.5292 0.5292 -0.6632
vn 0.3816 0.3815 -0.8419
vn 0.4371 0.4371 -0.7860
vn -0.3816 0.3815 -0.8419
vn -0.4371 0.4371 -0.7860
vn 0.5679 -0.5679 -0.5957
vn 0.4371 -0.4371 -0.7860
vn -0.5679 -0.5679 -0.5958
vn -0.4371 -0.4371 -0.7860
vn -0.5292 -0.5292 -0.6632
vn -0.3816 -0.3815 -0.8419
vn 0.5292 -0.5292 -0.6632
vn 0.3816 -0.3815 -0.8419
vn -0.5679 -0.5679 -0.5957
vn -0.2996 0.2995 -0.9058
vn -0.2996 -0.2995 -0.9058
vn 0.2995 0.2995 -0.9058
vn 0.2368 0.2368 -0.9423
vn 0.1646 0.1646 -0.9725
vn -0.1646 0.1646 -0.9725
vn 0.0996 0.0996 -0.9900
vn -0.2368 0.2368 -0.9423
vn -0.0996 0.0996 -0.9900
vn -0.2995 0.2995 -0.9058
vn 0.2996 0.2995 -0.9058
vn 0.2996 -0.2995 -0.9058
vn 0.1646 -0.1646 -0.9725
vn -0.1646 -0.1646 -0.9725
vn -0.2368 -0.2368 -0.9423
vn -0.0996 -0.0996 -0.9900
vn 0.2368 -0.2368 -0.9423
vn 0.0996 -0.0996 -0.9900
vn -0.0491 -0.0491 -0.9976
vn 0.0491 -0.0491 -0.9976
vn -0.0491 0.0491 -0.9976
vn 0.0164 -0.0164 -0.9997
vn -0.0164 -0.0164 -0.9997
vn -0.0164 0.0164 -0.9997
vn 0.0164 0.0164 -0.9997
vn 0.0491 0.0491 -0.9976
usemtl None
s off
f 2/1/1 1/2/1 5/3/1
f 3/4/1 1/2/1 2/1/1
f 4/5/1 1/2/1 3/4/1
f 17/6/1 19/7/1 16/8/1
f 17/6/1 16/8/1 18/9/1
f 16/8/1 2/1/1 18/9/1
f 16/8/1 3/4/1 2/1/1
f 17/6/1 18/9/1 20/10/1
f 2/1/1 5/3/1 28/11/1
f 158/12/2 154/13/2 155/14/2
f 155/14/2 154/13/2 157/15/2
f 156/16/2 154/13/2 159/17/2
f 159/17/2 154/13/2 158/12/2
f 160/18/2 159/17/2 161/19/2
f 161/19/2 159/17/2 158/12/2
f 163/20/2 161/19/2 162/21/2
f 164/22/2 161/19/2 163/20/2
f 164/22/2 160/18/2 161/19/2
f 164/22/2 165/23/2 160/18/2
f 17/6/1 20/10/1 168/24/1
s 1
f 1/25/3 4/26/4 9/27/5 6/28/6
f 5/29/7 1/25/3 6/28/6 7/30/8
f 7/30/8 6/28/6 8/31/9 30/32/10
f 6/28/6 9/27/5 10/33/11 8/31/9
f 9/27/5 11/34/12 12/35/13 10/33/11
f 4/26/4 3/36/14 11/34/12 9/27/5
f 11/34/12 13/37/15 14/38/16 12/35/13
f 3/36/14 16/39/17 13/37/15 11/34/12
f 13/37/15 15/40/6 43/41/9 14/38/16
f 16/39/17 19/42/3 15/40/6 13/37/15
f 19/42/3 17/43/4 167/44/5 15/40/6
f 20/45/7 18/46/18 21/47/19 22/48/8
f 18/46/18 2/49/20 24/50/21 21/47/19
f 22/48/8 21/47/19 23/51/22 52/52/10
f 21/47/19 24/50/21 25/53/23 23/51/22
f 24/50/21 26/54/24 27/55/25 25/53/23
f 2/49/20 28/56/26 26/54/24 24/50/21
f 26/54/24 7/57/8 30/58/10 27/55/25
f 28/56/26 5/59/7 7/57/8 26/54/24
f 25/53/23 27/55/25 29/60/27 55/61/28
f 27/55/25 30/58/10 31/62/29 29/60/27
f 30/32/10 8/31/9 33/63/30 31/64/29
f 29/60/27 31/62/29 32/65/31 58/66/32
f 31/64/29 33/63/30 34/67/33 32/68/31
f 33/63/30 35/69/34 36/70/35 34/67/33
f 8/31/9 10/33/11 35/69/34 33/63/30
f 35/69/34 37/71/36 38/72/37 36/70/35
f 10/33/11 12/35/13 37/71/36 35/69/34
f 37/71/36 39/73/38 40/74/39 38/72/37
f 12/35/13 14/38/16 39/73/38 37/71/36
f 39/73/38 41/75/30 42/76/33 40/74/39
f 14/38/16 43/41/9 41/75/30 39/73/38
f 41/75/30 44/77/34 45/78/40 42/76/33
f 43/41/9 46/79/11 44/77/34 41/75/30
f 44/77/34 47/80/27 48/81/32 45/78/40
f 46/79/11 49/82/25 47/80/27 44/77/34
f 47/80/27 50/83/29 51/84/31 48/81/32
f 49/82/25 52/52/10 50/83/29 47/80/27
f 50/83/29 53/85/41 54/86/42 51/84/31
f 52/52/10 23/51/22 53/85/41 50/83/29
f 53/85/41 55/61/28 56/87/43 54/86/42
f 23/51/22 25/53/23 55/61/28 53/85/41
f 55/61/28 29/60/27 58/66/32 56/87/43
f 54/86/42 56/87/43 57/88/44 79/89/45
f 56/87/43 58/66/32 59/90/46 57/88/44
f 58/66/32 32/65/31 61/91/47 59/90/46
f 57/88/44 59/90/46 60/92/48 82/93/49
f 59/90/46 61/91/47 62/94/50 60/92/48
f 61/95/47 63/96/51 64/97/52 62/98/50
f 32/68/31 34/67/33 63/96/51 61/95/47
f 63/96/51 65/99/53 66/100/54 64/97/52
f 34/67/33 36/70/35 65/99/53 63/96/51
f 65/99/53 67/101/55 68/102/56 66/100/54
f 36/70/35 38/72/37 67/101/55 65/99/53
f 67/101/55 69/103/57 70/104/58 68/102/56
f 38/72/37 40/74/39 69/103/57 67/101/55
f 69/103/57 71/105/51 72/106/52 70/104/58
f 40/74/39 42/76/33 71/105/51 69/103/57
f 71/105/51 73/107/53 74/108/54 72/106/52
f 42/76/33 45/78/40 73/107/53 71/105/51
f 73/107/53 75/109/46 76/110/48 74/108/54
f 45/78/40 48/81/32 75/109/46 73/107/53
f 75/109/46 77/111/47 78/112/50 76/110/48
f 48/81/32 51/84/31 77/111/47 75/109/46
f 77/111/47 79/89/45 80/113/59 78/112/50
f 51/84/31 54/86/42 79/89/45 77/111/47
f 79/89/45 57/88/44 82/93/49 80/113/59
f 78/112/50 80/113/59 81/114/60 103/115/61
f 80/113/59 82/93/49 83/116/62 81/114/60
f 82/93/49 60/92/48 85/117/63 83/116/62
f 81/114/60 83/116/62 84/118/64 106/119/65
f 83/116/62 85/117/63 86/120/66 84/118/64
f 85/117/63 87/121/61 88/122/67 86/120/66
f 60/92/48 62/94/50 87/121/61 85/117/63
f 87/123/61 89/124/68 90/125/69 88/126/67
f 62/98/50 64/97/52 89/124/68 87/123/61
f 89/124/68 91/127/70 92/128/71 90/125/69
f 64/97/52 66/100/54 91/127/70 89/124/68
f 91/127/70 93/129/72 94/130/73 92/128/71
f 66/100/54 68/102/56 93/129/72 91/127/70
f 93/129/72 95/131/74 96/132/75 94/130/73
f 68/102/56 70/104/58 95/131/74 93/129/72
f 95/131/74 97/133/68 98/134/69 96/132/75
f 70/104/58 72/106/52 97/133/68 95/131/74
f 97/133/68 99/135/70 100/136/71 98/134/69
f 72/106/52 74/108/54 99/135/70 97/133/68
f 99/135/70 101/137/63 102/138/66 100/136/71
f 74/108/54 76/110/48 101/137/63 99/135/70
f 101/137/63 103/115/61 104/139/67 102/138/66
f 76/110/48 78/112/50 103/115/61 101/137/63
f 103/115/61 81/114/60 106/119/65 104/139/67
f 102/138/66 104/139/67 105/140/76 127/141/77
f 104/139/67 106/119/65 107/142/78 105/140/76
f 106/119/65 84/118/64 109/143/79 107/142/78
f 105/140/76 107/142/78 108/144/80 130/145/81
f 107/142/78 109/143/79 110/146/82 108/144/80
f 109/143/79 111/147/77 112/148/83 110/146/82
f 84/118/64 86/120/66 111/147/77 109/143/79
f 111/147/77 113/149/76 114/150/81 112/148/83
f 86/120/66 88/122/67 113/149/76 111/147/77
f 113/151/76 115/152/84 116/153/85 114/154/81
f 88/126/67 90/125/69 115/152/84 113/151/76
f 115/152/84 117/155/86 118/156/87 116/153/85
f 90/125/69 92/128/71 117/155/86 115/152/84
f 117/155/86 119/157/88 120/158/89 118/156/87
f 92/128/71 94/130/73 119/157/88 117/155/86
f 119/157/88 121/159/90 122/160/91 120/158/89
f 94/130/73 96/132/75 121/159/90 119/157/88
f 121/159/90 123/161/84 124/162/85 122/160/91
f 96/132/75 98/134/69 123/161/84 121/159/90
f 123/161/84 125/163/92 126/164/87 124/162/85
f 98/134/69 100/136/71 125/163/92 123/161/84
f 125/163/92 127/141/77 128/165/83 126/164/87
f 100/136/71 102/138/66 127/141/77 125/163/92
f 127/141/77 105/140/76 130/145/81 128/165/83
f 126/164/87 128/165/83 129/166/93 151/167/94
f 128/165/83 130/145/81 131/168/95 129/166/93
f 130/145/81 108/144/80 133/169/96 131/168/95
f 129/166/93 131/168/95 132/170/97 153/171/98
f 131/168/95 133/169/96 134/172/99 132/170/97
f 133/169/96 135/173/100 136/174/101 134/172/99
f 108/144/80 110/146/82 135/173/100 133/169/96
f 135/173/100 137/175/102 138/176/98 136/174/101
f 110/146/82 112/148/83 137/175/102 135/173/100
f 137/175/102 139/177/103 140/178/97 138/176/98
f 112/148/83 114/150/81 139/177/103 137/175/102
f 139/179/103 141/180/104 142/181/105 140/182/97
f 114/154/81 116/153/85 141/180/104 139/179/103
f 141/180/104 143/183/94 144/184/106 142/181/105
f 116/153/85 118/156/87 143/183/94 141/180/104
f 143/183/94 145/185/107 146/186/108 144/184/106
f 118/156/87 120/158/89 145/185/107 143/183/94
f 145/185/107 147/187/109 148/188/110 146/186/108
f 120/158/89 122/160/91 147/187/109 145/185/107
f 147/187/109 149/189/104 150/190/105 148/188/110
f 122/160/91 124/162/85 149/189/104 147/187/109
f 149/189/104 151/167/94 152/191/106 150/190/105
f 124/162/85 126/164/87 151/167/94 149/189/104
f 151/167/94 129/166/93 153/171/98 152/191/106
f 150/190/105 152/191/106 154/192/111 156/193/112
f 152/191/106 153/171/98 157/194/113 154/192/111
f 148/188/110 150/190/105 156/193/112 159/195/114
f 146/186/108 148/188/110 159/195/114 160/196/115
f 136/174/101 138/176/98 162/197/113 161/198/116
f 134/172/99 136/174/101 161/198/116 158/199/117
f 142/181/105 144/184/106 165/200/111 164/201/112
f 140/182/97 142/181/105 164/201/112 163/20/118
f 144/184/106 146/186/108 160/196/115 165/200/111
f 138/176/98 140/178/97 163/202/118 162/197/113
f 132/170/97 134/172/99 158/199/117 155/203/118
f 153/171/98 132/170/97 155/203/118 157/194/113
f 166/204/24 22/48/8 52/52/10 49/82/25
f 167/44/5 166/204/24 49/82/25 46/79/11
f 17/43/4 168/205/26 166/204/24 167/44/5
f 168/205/26 20/45/7 22/48/8 166/204/24
f 15/40/6 167/44/5 46/79/11 43/41/9
