# Blender v2.91.2 OBJ File: 'Letters.blend'
# www.blender.org
mtllib I.mtl
o Text.017_Text.068
v 0.023664 0.257844 0.210000
v -0.023665 -0.257844 0.210000
v -0.023665 0.257844 0.210000
v 0.023664 -0.257844 0.210000
v 0.026252 0.260432 0.209659
v 0.028664 0.262844 0.208660
v 0.026252 -0.260432 0.209659
v -0.026253 0.260432 0.209659
v -0.026253 -0.260432 0.209659
v -0.028665 0.262844 0.208660
v -0.028665 -0.262844 0.208660
v -0.030736 0.264915 0.207071
v -0.030736 -0.264915 0.207071
v -0.032325 0.266504 0.205000
v 0.030735 0.264915 0.207071
v 0.032324 0.266504 0.205000
v 0.030735 -0.264915 0.207071
v 0.032324 -0.266504 0.205000
v 0.028664 -0.262844 0.208660
v 0.033323 -0.267503 0.202588
v -0.032325 -0.266504 0.205000
v -0.033324 -0.267503 0.202588
v -0.033665 -0.267844 0.200000
v -0.033324 0.267503 0.202588
v -0.033665 0.267844 0.200000
v 0.033323 0.267503 0.202588
v 0.033664 0.267844 0.200000
v 0.033664 0.267844 -0.200000
v 0.033664 -0.267844 0.200000
v 0.033664 -0.267844 -0.200000
v 0.033323 -0.267503 -0.202588
v -0.033665 -0.267844 -0.200000
v -0.033324 -0.267503 -0.202588
v -0.033665 0.267844 -0.200000
v -0.033324 0.267503 -0.202588
v -0.032325 0.266504 -0.205000
v 0.033323 0.267503 -0.202588
v 0.032324 0.266504 -0.205000
v 0.030735 0.264915 -0.207071
v 0.032324 -0.266504 -0.205000
v 0.030735 -0.264915 -0.207071
v -0.032325 -0.266504 -0.205000
v -0.030736 -0.264915 -0.207071
v -0.028665 -0.262844 -0.208660
v -0.030736 0.264915 -0.207071
v -0.028665 0.262844 -0.208660
v -0.026253 0.260432 -0.209659
v 0.028664 0.262844 -0.208660
v 0.026252 0.260432 -0.209659
v 0.028664 -0.262844 -0.208660
v 0.026252 -0.260432 -0.209659
v 0.023664 -0.257844 -0.210000
v -0.026253 -0.260432 -0.209659
v -0.023665 -0.257844 -0.210000
v 0.023664 0.257844 -0.210000
v -0.023665 0.257844 -0.210000
vt 0.666667 0.000000
vt 0.333333 0.000000
vt 0.000000 0.000000
vt 1.000000 0.000000
vt 0.333333 0.000000
vt 0.666667 0.000000
vt 0.000000 0.000000
vt 1.000000 0.000000
vt 0.750000 1.000000
vt 1.000000 1.000000
vt 1.000000 0.923077
vt 0.750000 0.923077
vt 0.000000 1.000000
vt 0.250000 1.000000
vt 0.250000 0.923077
vt 0.000000 0.923077
vt 1.000000 0.846154
vt 0.750000 0.846154
vt 0.250000 0.846154
vt 0.000000 0.846154
vt 0.500000 1.000000
vt 0.500000 0.923077
vt 0.500000 0.846154
vt 0.750000 0.769231
vt 0.500000 0.769231
vt 1.000000 0.769231
vt 0.750000 0.692308
vt 0.500000 0.692308
vt 1.000000 0.692308
vt 0.000000 0.769231
vt 0.250000 0.769231
vt 0.250000 0.692308
vt 0.000000 0.692308
vt 0.250000 0.615385
vt 0.000000 0.615385
vt 0.500000 0.615385
vt 0.750000 0.615385
vt 0.500000 0.538462
vt 0.250000 0.538462
vt 0.750000 0.538462
vt 1.000000 0.615385
vt 1.000000 0.538462
vt 0.000000 0.538462
vt 1.000000 0.461538
vt 0.750000 0.461538
vt 0.250000 0.461538
vt 0.000000 0.461538
vt 0.500000 0.461538
vt 0.250000 0.384615
vt 0.000000 0.384615
vt 0.500000 0.384615
vt 0.750000 0.384615
vt 1.000000 0.384615
vt 0.750000 0.307692
vt 0.500000 0.307692
vt 1.000000 0.307692
vt 0.250000 0.307692
vt 0.000000 0.307692
vt 1.000000 0.230769
vt 0.750000 0.230769
vt 0.250000 0.230769
vt 0.000000 0.230769
vt 0.500000 0.230769
vt 0.500000 0.153846
vt 0.250000 0.153846
vt 0.750000 0.153846
vt 1.000000 0.153846
vt 0.750000 0.076923
vt 0.500000 0.076923
vt 1.000000 0.076923
vt 0.000000 0.153846
vt 0.250000 0.076923
vt 0.000000 0.076923
vt 0.250000 0.000000
vt 0.500000 0.000000
vt 0.750000 0.000000
vt 1.000000 0.000000
vn 0.0000 -0.0000 1.0000
vn 0.0000 0.0000 -1.0000
vn -0.0491 0.0491 0.9976
vn 0.0491 0.0491 0.9976
vn 0.1646 0.1646 0.9725
vn -0.1646 0.1646 0.9725
vn 0.0491 -0.0491 0.9976
vn 0.1646 -0.1646 0.9725
vn 0.2996 0.2995 0.9058
vn -0.2996 0.2995 0.9058
vn 0.2996 -0.2995 0.9058
vn -0.0491 -0.0491 0.9976
vn -0.1646 -0.1646 0.9725
vn -0.2996 -0.2995 0.9058
vn -0.4371 0.4371 0.7860
vn -0.4371 -0.4371 0.7860
vn 0.4371 0.4371 0.7860
vn -0.5679 0.5679 0.5957
vn -0.5679 -0.5679 0.5957
vn 0.5679 0.5679 0.5957
vn 0.4371 -0.4371 0.7860
vn 0.5679 -0.5679 0.5957
vn 0.6684 -0.6684 0.3262
vn 0.6684 0.6684 0.3262
vn -0.6684 -0.6684 0.3262
vn -0.6684 0.6684 0.3262
vn -0.7043 -0.7043 0.0883
vn 0.7043 -0.7043 0.0883
vn -0.7043 0.7043 0.0883
vn 0.7043 0.7043 0.0883
vn 0.7043 0.7043 -0.0883
vn -0.7043 0.7043 -0.0883
vn 0.7043 -0.7043 -0.0883
vn -0.7043 -0.7043 -0.0883
vn 0.6684 -0.6684 -0.3262
vn 0.6684 0.6684 -0.3262
vn -0.6684 -0.6684 -0.3262
vn -0.6684 0.6684 -0.3262
vn -0.5679 0.5679 -0.5957
vn -0.5679 -0.5679 -0.5957
vn 0.5679 0.5679 -0.5957
vn 0.5679 -0.5679 -0.5957
vn 0.4371 0.4371 -0.7860
vn -0.4371 0.4371 -0.7860
vn 0.4371 -0.4371 -0.7860
vn -0.4371 -0.4371 -0.7860
vn -0.2996 -0.2995 -0.9058
vn 0.2996 -0.2995 -0.9058
vn -0.2996 0.2995 -0.9058
vn 0.2996 0.2995 -0.9058
vn -0.1646 0.1646 -0.9725
vn -0.1646 -0.1646 -0.9725
vn 0.1646 0.1646 -0.9725
vn 0.1646 -0.1646 -0.9725
vn 0.0491 -0.0491 -0.9976
vn 0.0491 0.0491 -0.9976
vn -0.0491 -0.0491 -0.9976
vn -0.0491 0.0491 -0.9976
usemtl None
s off
f 2/1/1 4/2/1 1/3/1
f 2/1/1 1/3/1 3/4/1
f 52/5/2 54/6/2 55/7/2
f 55/7/2 54/6/2 56/8/2
s 1
f 3/9/3 1/10/4 5/11/5 8/12/6
f 1/13/4 4/14/7 7/15/8 5/16/5
f 8/12/6 5/11/5 6/17/9 10/18/10
f 5/16/5 7/15/8 19/19/11 6/20/9
f 2/21/12 3/9/3 8/12/6 9/22/13
f 9/22/13 8/12/6 10/18/10 11/23/14
f 11/23/14 10/18/10 12/24/15 13/25/16
f 10/18/10 6/17/9 15/26/17 12/24/15
f 13/25/16 12/24/15 14/27/18 21/28/19
f 12/24/15 15/26/17 16/29/20 14/27/18
f 15/30/17 17/31/21 18/32/22 16/33/20
f 6/20/9 19/19/11 17/31/21 15/30/17
f 17/31/21 13/25/16 21/28/19 18/32/22
f 19/19/11 11/23/14 13/25/16 17/31/21
f 7/15/8 9/22/13 11/23/14 19/19/11
f 16/33/20 18/32/22 20/34/23 26/35/24
f 18/32/22 21/28/19 22/36/25 20/34/23
f 21/28/19 14/27/18 24/37/26 22/36/25
f 20/34/23 22/36/25 23/38/27 29/39/28
f 22/36/25 24/37/26 25/40/29 23/38/27
f 24/37/26 26/41/24 27/42/30 25/40/29
f 14/27/18 16/29/20 26/41/24 24/37/26
f 26/35/24 20/34/23 29/39/28 27/43/30
f 25/40/29 27/42/30 28/44/31 34/45/32
f 27/43/30 29/39/28 30/46/33 28/47/31
f 29/39/28 23/38/27 32/48/34 30/46/33
f 28/47/31 30/46/33 31/49/35 37/50/36
f 30/46/33 32/48/34 33/51/37 31/49/35
f 32/48/34 34/45/32 35/52/38 33/51/37
f 23/38/27 25/40/29 34/45/32 32/48/34
f 34/45/32 28/44/31 37/53/36 35/52/38
f 33/51/37 35/52/38 36/54/39 42/55/40
f 35/52/38 37/53/36 38/56/41 36/54/39
f 37/50/36 31/49/35 40/57/42 38/58/41
f 36/54/39 38/56/41 39/59/43 45/60/44
f 38/58/41 40/57/42 41/61/45 39/62/43
f 40/57/42 42/55/40 43/63/46 41/61/45
f 31/49/35 33/51/37 42/55/40 40/57/42
f 42/55/40 36/54/39 45/60/44 43/63/46
f 41/61/45 43/63/46 44/64/47 50/65/48
f 43/63/46 45/60/44 46/66/49 44/64/47
f 45/60/44 39/59/43 48/67/50 46/66/49
f 44/64/47 46/66/49 47/68/51 53/69/52
f 46/66/49 48/67/50 49/70/53 47/68/51
f 48/71/50 50/65/48 51/72/54 49/73/53
f 39/62/43 41/61/45 50/65/48 48/71/50
f 50/65/48 44/64/47 53/69/52 51/72/54
f 49/73/53 51/72/54 52/74/55 55/7/56
f 51/72/54 53/69/52 54/75/57 52/74/55
f 53/69/52 47/68/51 56/76/58 54/75/57
f 47/68/51 49/70/53 55/77/56 56/76/58
f 4/14/7 2/21/12 9/22/13 7/15/8
