# Blender v2.91.2 OBJ File: 'Letters.blend'
# www.blender.org
mtllib K.mtl
o Text.015_Text.066
v -0.132795 -0.257668 0.210000
v -0.132795 0.258020 0.210000
v -0.085466 0.258020 0.210000
v -0.085466 -0.020476 0.210000
v -0.085467 -0.080847 0.210000
v -0.085466 -0.257668 0.210000
v -0.135384 -0.260256 0.209659
v -0.082879 -0.260256 0.209659
v -0.137795 -0.262668 0.208660
v -0.135384 0.260608 0.209659
v -0.137795 0.263020 0.208660
v -0.082879 0.260608 0.209659
v -0.080467 0.263020 0.208660
v -0.082879 -0.012750 0.209659
v -0.080467 -0.005551 0.208660
v -0.025351 0.063473 0.209659
v -0.027292 0.064905 0.208660
v -0.023268 0.061937 0.210000
v 0.116702 0.260608 0.209659
v 0.115468 0.263020 0.208660
v 0.179169 0.260608 0.209659
v 0.118027 0.258020 0.210000
v 0.174042 0.258020 0.210000
v 0.007738 0.032648 0.210000
v 0.010866 0.032528 0.209659
v -0.021600 -0.003582 0.210000
v 0.189408 -0.257668 0.210000
v 0.132518 -0.257668 0.210000
v 0.194081 -0.260256 0.209659
v 0.198435 -0.262668 0.208660
v 0.131061 -0.260256 0.209659
v 0.129704 -0.262668 0.208660
v -0.021924 -0.008037 0.209659
v -0.022227 -0.012188 0.208660
v -0.082879 -0.081778 0.209659
v -0.080467 -0.082646 0.208660
v -0.078395 -0.083391 0.207071
v -0.080467 -0.262668 0.208660
v -0.078395 -0.264739 0.207071
v -0.076807 -0.266328 0.205000
v -0.139866 -0.264739 0.207071
v -0.141456 -0.266328 0.205000
v -0.139866 0.265091 0.207071
v -0.141456 0.266680 0.205000
v -0.078395 0.265091 0.207071
v -0.076807 0.266680 0.205000
v -0.078395 0.000631 0.207071
v -0.076807 0.005375 0.205000
v -0.028959 0.066134 0.207071
v -0.030238 0.067078 0.205000
v 0.114407 0.265091 0.207071
v 0.113594 0.266680 0.205000
v 0.188048 0.265091 0.207071
v 0.191195 0.266680 0.205000
v 0.183946 0.263020 0.208660
v 0.016284 0.032321 0.207071
v 0.018205 0.032247 0.205000
v 0.013781 0.032416 0.208660
v 0.202174 -0.264739 0.207071
v 0.205043 -0.266328 0.205000
v 0.128537 -0.264739 0.207071
v 0.127643 -0.266328 0.205000
v -0.022487 -0.015753 0.207071
v -0.022686 -0.018489 0.205000
v -0.022811 -0.020209 0.202588
v -0.076807 -0.083963 0.205000
v -0.075808 -0.084322 0.202588
v -0.075467 -0.084445 0.200000
v -0.075808 -0.267327 0.202588
v -0.075467 -0.267668 0.200000
v -0.142455 -0.267327 0.202588
v -0.142795 -0.267668 0.200000
v -0.142455 0.267679 0.202588
v -0.142795 0.268020 0.200000
v -0.075808 0.267679 0.202588
v -0.075467 0.268020 0.200000
v -0.075808 0.008357 0.202588
v -0.075467 0.009374 0.200000
v -0.031042 0.067671 0.202588
v -0.031316 0.067873 0.200000
v 0.113082 0.267679 0.202588
v 0.112907 0.268020 0.200000
v 0.193174 0.267679 0.202588
v 0.193849 0.268020 0.200000
v 0.019412 0.032201 0.202588
v 0.019824 0.032185 0.200000
v 0.206847 -0.267327 0.202588
v 0.207462 -0.267668 0.200000
v 0.127080 -0.267327 0.202588
v 0.126888 -0.267668 0.200000
v 0.126888 -0.267668 -0.200000
v -0.022854 -0.020795 0.200000
v -0.022854 -0.020795 -0.200000
v -0.022811 -0.020209 -0.202588
v -0.075467 -0.084445 -0.200000
v -0.075808 -0.084322 -0.202588
v -0.075467 -0.267668 -0.200000
v -0.075808 -0.267327 -0.202588
v -0.142795 -0.267668 -0.200000
v -0.142455 -0.267327 -0.202588
v -0.142795 0.268020 -0.200000
v -0.142455 0.267679 -0.202588
v -0.075467 0.268020 -0.200000
v -0.075808 0.267679 -0.202588
v -0.075467 0.009374 -0.200000
v -0.075808 0.008357 -0.202588
v -0.031316 0.067873 -0.200000
v -0.031042 0.067671 -0.202588
v 0.112907 0.268020 -0.200000
v 0.113082 0.267679 -0.202588
v 0.193849 0.268020 -0.200000
v 0.193174 0.267679 -0.202588
v 0.019824 0.032185 -0.200000
v 0.019412 0.032201 -0.202588
v 0.207462 -0.267668 -0.200000
v 0.206847 -0.267327 -0.202588
v 0.205043 -0.266328 -0.205000
v 0.127080 -0.267327 -0.202588
v 0.127643 -0.266328 -0.205000
v 0.128537 -0.264739 -0.207071
v -0.022686 -0.018489 -0.205000
v -0.022487 -0.015753 -0.207071
v -0.076807 -0.083963 -0.205000
v -0.078395 -0.083391 -0.207071
v -0.076807 -0.266328 -0.205000
v -0.078395 -0.264739 -0.207071
v -0.141456 -0.266328 -0.205000
v -0.139866 -0.264739 -0.207071
v -0.141456 0.266680 -0.205000
v -0.139866 0.265091 -0.207071
v -0.076807 0.266680 -0.205000
v -0.078395 0.265091 -0.207071
v -0.076807 0.005375 -0.205000
v -0.078395 0.000631 -0.207071
v -0.030238 0.067078 -0.205000
v -0.028959 0.066134 -0.207071
v 0.113594 0.266680 -0.205000
v 0.114407 0.265091 -0.207071
v 0.191195 0.266680 -0.205000
v 0.188048 0.265091 -0.207071
v 0.018205 0.032247 -0.205000
v 0.016284 0.032321 -0.207071
v 0.013781 0.032416 -0.208660
v 0.202174 -0.264739 -0.207071
v 0.198435 -0.262668 -0.208660
v 0.194081 -0.260256 -0.209659
v 0.129704 -0.262668 -0.208660
v 0.131061 -0.260256 -0.209659
v -0.022227 -0.012188 -0.208660
v -0.021924 -0.008037 -0.209659
v -0.080467 -0.082646 -0.208660
v -0.082879 -0.081778 -0.209659
v -0.080467 -0.262668 -0.208660
v -0.082879 -0.260256 -0.209659
v -0.137795 -0.262668 -0.208660
v -0.135384 -0.260256 -0.209659
v -0.137795 0.263020 -0.208660
v -0.135384 0.260608 -0.209659
v -0.080467 0.263020 -0.208660
v -0.082879 0.260608 -0.209659
v -0.080467 -0.005551 -0.208660
v -0.082879 -0.012750 -0.209659
v -0.027292 0.064905 -0.208660
v -0.025351 0.063473 -0.209659
v 0.115468 0.263020 -0.208660
v 0.116702 0.260608 -0.209659
v 0.183946 0.263020 -0.208660
v 0.179169 0.260608 -0.209659
v 0.174042 0.258020 -0.210000
v 0.010866 0.032528 -0.209659
v 0.007738 0.032648 -0.210000
v -0.023268 0.061937 -0.210000
v -0.021600 -0.003582 -0.210000
v 0.189408 -0.257668 -0.210000
v -0.085466 -0.020476 -0.210000
v -0.085466 0.258020 -0.210000
v -0.132795 -0.257668 -0.210000
v -0.085467 -0.080847 -0.210000
v -0.085466 -0.257668 -0.210000
v -0.132795 0.258020 -0.210000
v 0.132518 -0.257668 -0.210000
v 0.118027 0.258020 -0.210000
vt 0.333333 0.000000
vt 0.500000 0.000000
vt 0.416667 0.000000
vt 0.583333 0.000000
vt 0.166667 0.000000
vt 0.250000 0.000000
vt 0.666667 0.000000
vt 0.833333 0.000000
vt 0.750000 0.000000
vt 0.916667 0.000000
vt 0.083333 0.000000
vt 1.000000 0.000000
vt 0.000000 0.000000
vt 0.916667 0.000000
vt 0.583333 0.000000
vt 0.666667 0.000000
vt 0.833333 0.000000
vt 0.083333 0.000000
vt 1.000000 0.000000
vt 0.333333 0.000000
vt 0.500000 0.000000
vt 0.166667 0.000000
vt 0.250000 0.000000
vt 0.416667 0.000000
vt 0.000000 0.000000
vt 0.750000 0.000000
vt 0.307692 1.000000
vt 0.384615 1.000000
vt 0.384615 0.923077
vt 0.307692 0.923077
vt 0.230769 1.000000
vt 0.230769 0.923077
vt 0.307692 0.846154
vt 0.230769 0.846154
vt 0.384615 0.846154
vt 0.461538 0.923077
vt 0.461538 0.846154
vt 0.461538 1.000000
vt 0.538462 0.923077
vt 0.538462 0.846154
vt 0.538462 1.000000
vt 0.615385 0.923077
vt 0.615385 0.846154
vt 0.615385 1.000000
vt 0.692308 0.923077
vt 0.692308 0.846154
vt 0.692308 1.000000
vt 0.769231 0.923077
vt 0.769231 0.846154
vt 0.769231 1.000000
vt 0.846154 1.000000
vt 0.846154 0.923077
vt 0.923077 1.000000
vt 0.923077 0.923077
vt 1.000000 1.000000
vt 1.000000 0.923077
vt 0.923077 0.846154
vt 0.846154 0.846154
vt 1.000000 0.846154
vt 0.000000 0.923077
vt 0.076923 0.923077
vt 0.076923 0.846154
vt 0.000000 0.846154
vt 0.000000 1.000000
vt 0.076923 1.000000
vt 0.153846 0.923077
vt 0.153846 0.846154
vt 0.153846 1.000000
vt 0.153846 0.769231
vt 0.076923 0.769231
vt 0.230769 0.769231
vt 0.307692 0.769231
vt 0.230769 0.692308
vt 0.153846 0.692308
vt 0.307692 0.692308
vt 0.384615 0.769231
vt 0.384615 0.692308
vt 0.461538 0.769231
vt 0.461538 0.692308
vt 0.538462 0.769231
vt 0.538462 0.692308
vt 0.615385 0.769231
vt 0.615385 0.692308
vt 0.692308 0.769231
vt 0.692308 0.692308
vt 0.769231 0.769231
vt 0.769231 0.692308
vt 0.846154 0.769231
vt 0.846154 0.692308
vt 0.923077 0.769231
vt 0.923077 0.692308
vt 1.000000 0.769231
vt 1.000000 0.692308
vt 0.000000 0.769231
vt 0.076923 0.692308
vt 0.000000 0.692308
vt 0.076923 0.615385
vt 0.000000 0.615385
vt 0.153846 0.615385
vt 0.230769 0.615385
vt 0.153846 0.538462
vt 0.076923 0.538462
vt 0.230769 0.538462
vt 0.307692 0.615385
vt 0.307692 0.538462
vt 0.384615 0.615385
vt 0.384615 0.538462
vt 0.461538 0.615385
vt 0.461538 0.538462
vt 0.538462 0.615385
vt 0.538462 0.538462
vt 0.615385 0.615385
vt 0.615385 0.538462
vt 0.692308 0.615385
vt 0.692308 0.538462
vt 0.769231 0.615385
vt 0.769231 0.538462
vt 0.846154 0.615385
vt 0.846154 0.538462
vt 0.923077 0.615385
vt 0.923077 0.538462
vt 1.000000 0.615385
vt 1.000000 0.538462
vt 0.000000 0.538462
vt 1.000000 0.461538
vt 0.923077 0.461538
vt 0.076923 0.461538
vt 0.000000 0.461538
vt 0.153846 0.461538
vt 0.076923 0.384615
vt 0.000000 0.384615
vt 0.153846 0.384615
vt 0.230769 0.461538
vt 0.230769 0.384615
vt 0.307692 0.461538
vt 0.307692 0.384615
vt 0.384615 0.461538
vt 0.384615 0.384615
vt 0.461538 0.461538
vt 0.461538 0.384615
vt 0.538462 0.461538
vt 0.538462 0.384615
vt 0.615385 0.461538
vt 0.615385 0.384615
vt 0.692308 0.461538
vt 0.692308 0.384615
vt 0.769231 0.461538
vt 0.769231 0.384615
vt 0.846154 0.461538
vt 0.846154 0.384615
vt 0.923077 0.384615
vt 1.000000 0.384615
vt 0.923077 0.307692
vt 0.846154 0.307692
vt 1.000000 0.307692
vt 0.076923 0.307692
vt 0.000000 0.307692
vt 1.000000 0.230769
vt 0.923077 0.230769
vt 0.076923 0.230769
vt 0.000000 0.230769
vt 0.153846 0.307692
vt 0.153846 0.230769
vt 0.230769 0.307692
vt 0.230769 0.230769
vt 0.307692 0.307692
vt 0.307692 0.230769
vt 0.384615 0.307692
vt 0.384615 0.230769
vt 0.461538 0.307692
vt 0.461538 0.230769
vt 0.538462 0.307692
vt 0.538462 0.230769
vt 0.615385 0.307692
vt 0.615385 0.230769
vt 0.692308 0.307692
vt 0.692308 0.230769
vt 0.769231 0.307692
vt 0.769231 0.230769
vt 0.846154 0.230769
vt 0.846154 0.153846
vt 0.769231 0.153846
vt 0.923077 0.153846
vt 1.000000 0.153846
vt 0.923077 0.076923
vt 0.846154 0.076923
vt 1.000000 0.076923
vt 0.000000 0.153846
vt 0.076923 0.153846
vt 0.076923 0.076923
vt 0.000000 0.076923
vt 0.153846 0.153846
vt 0.153846 0.076923
vt 0.230769 0.153846
vt 0.230769 0.076923
vt 0.307692 0.153846
vt 0.307692 0.076923
vt 0.384615 0.153846
vt 0.384615 0.076923
vt 0.461538 0.153846
vt 0.461538 0.076923
vt 0.538462 0.153846
vt 0.538462 0.076923
vt 0.615385 0.153846
vt 0.615385 0.076923
vt 0.692308 0.153846
vt 0.692308 0.076923
vt 0.769231 0.076923
vt 0.769231 0.000000
vt 0.692308 0.000000
vt 0.846154 0.000000
vt 0.923077 0.000000
vt 0.615385 0.000000
vt 0.538462 0.000000
vt 0.461538 0.000000
vt 0.153846 0.000000
vt 0.076923 0.000000
vt 0.230769 0.000000
vt 0.307692 0.000000
vt 0.384615 0.000000
vt 1.000000 0.000000
vn 0.0000 -0.0000 1.0000
vn 0.0000 0.0000 -1.0000
vn -0.0491 -0.0491 0.9976
vn -0.0491 0.0491 0.9976
vn -0.1646 0.1646 0.9725
vn -0.1646 -0.1646 0.9725
vn 0.0491 -0.0491 0.9976
vn 0.1646 -0.1646 0.9725
vn -0.2996 -0.2995 0.9058
vn 0.2995 -0.2995 0.9058
vn -0.2996 0.2995 0.9058
vn 0.1646 0.1646 0.9725
vn 0.2995 0.2995 0.9058
vn 0.0491 0.0491 0.9976
vn 0.0162 0.0484 0.9987
vn 0.0452 0.1350 0.9898
vn 0.0013 0.0041 1.0000
vn -0.2076 0.1531 0.9662
vn -0.4018 0.2964 0.8664
vn -0.0522 0.0385 0.9979
vn -0.1211 0.2365 0.9640
vn -0.2217 0.4329 0.8737
vn -0.0345 0.0674 0.9971
vn 0.1464 0.0739 0.9864
vn 0.2693 0.1360 0.9534
vn 0.0450 0.0227 0.9987
vn 0.0336 -0.0013 0.9994
vn 0.1766 -0.0067 0.9842
vn 0.0467 -0.0258 0.9986
vn 0.1524 -0.0844 0.9847
vn -0.0371 -0.0659 0.9971
vn -0.1292 -0.2295 0.9647
vn 0.2799 -0.1550 0.9474
vn 0.3953 -0.0151 0.9184
vn -0.2360 -0.4192 0.8767
vn -0.0078 -0.1073 0.9942
vn -0.0197 -0.2700 0.9626
vn -0.0011 -0.0149 0.9999
vn 0.2061 -0.0741 0.9757
vn 0.4292 -0.1544 0.8899
vn 0.0452 -0.0163 0.9988
vn 0.6308 -0.2270 0.7420
vn -0.0331 -0.4541 0.8903
vn 0.4371 -0.4371 0.7860
vn -0.4371 -0.4371 0.7860
vn 0.5679 -0.5679 0.5957
vn 0.7946 -0.2859 0.5355
vn -0.5679 -0.5679 0.5957
vn -0.4371 0.4371 0.7860
vn -0.5679 0.5679 0.5957
vn 0.4371 0.4371 0.7860
vn 0.5679 0.5679 0.5957
vn 0.0812 0.2427 0.9667
vn 0.1342 0.4002 0.9065
vn -0.5687 0.4194 0.7076
vn -0.6968 0.5139 0.5004
vn -0.3129 0.6112 0.7270
vn -0.3879 0.7576 0.5249
vn 0.4189 0.2115 0.8831
vn 0.6051 0.3055 0.7352
vn 0.6093 -0.0233 0.7926
vn 0.8029 -0.0307 0.5953
vn 0.4314 -0.2390 0.8699
vn 0.6126 -0.3393 0.7138
vn -0.3341 -0.5933 0.7324
vn -0.4156 -0.7383 0.5311
vn -0.0487 -0.6682 0.7423
vn -0.0647 -0.8883 0.4546
vn -0.4709 -0.8364 0.2804
vn 0.9029 -0.3248 0.2814
vn 0.6684 -0.6684 0.3262
vn 0.9386 -0.3377 0.0705
vn -0.0721 -0.9903 0.1185
vn 0.7043 -0.7043 0.0884
vn -0.6684 -0.6684 0.3262
vn -0.7043 -0.7043 0.0883
vn -0.6684 0.6684 0.3262
vn -0.7043 0.7043 0.0883
vn 0.6684 0.6684 0.3262
vn 0.7043 0.7043 0.0884
vn 0.2251 0.6720 0.7054
vn 0.3096 0.9244 0.2225
vn -0.7773 0.5733 0.2590
vn -0.8031 0.5923 0.0654
vn -0.4380 0.8555 0.2762
vn -0.4545 0.8878 0.0718
vn 0.8007 0.4042 0.4421
vn 0.8849 0.4468 0.1315
vn 0.9455 -0.0362 0.3235
vn 0.9959 -0.0381 0.0812
vn 0.7929 -0.4392 0.4224
vn 0.8681 -0.4808 0.1235
vn -0.4893 -0.8690 0.0732
vn -0.4893 -0.8690 -0.0732
vn 0.8681 -0.4808 -0.1235
vn -0.0721 -0.9903 -0.1185
vn 0.9386 -0.3377 -0.0705
vn -0.0647 -0.8883 -0.4546
vn -0.4709 -0.8364 -0.2804
vn 0.9029 -0.3248 -0.2814
vn 0.7043 -0.7043 -0.0884
vn 0.6684 -0.6684 -0.3262
vn -0.7043 -0.7043 -0.0883
vn -0.6684 -0.6684 -0.3262
vn -0.7043 0.7043 -0.0883
vn -0.6684 0.6684 -0.3262
vn 0.7043 0.7043 -0.0884
vn 0.6684 0.6684 -0.3262
vn 0.3096 0.9244 -0.2225
vn 0.2251 0.6720 -0.7054
vn -0.8031 0.5923 -0.0654
vn -0.7773 0.5733 -0.2590
vn -0.4545 0.8878 -0.0718
vn -0.4380 0.8555 -0.2762
vn 0.8849 0.4468 -0.1315
vn 0.8007 0.4042 -0.4421
vn 0.9959 -0.0381 -0.0812
vn 0.9455 -0.0362 -0.3235
vn 0.7929 -0.4392 -0.4224
vn 0.6126 -0.3393 -0.7138
vn 0.8029 -0.0307 -0.5953
vn -0.4156 -0.7383 -0.5311
vn -0.0487 -0.6682 -0.7423
vn -0.3341 -0.5933 -0.7324
vn 0.4314 -0.2390 -0.8699
vn -0.0331 -0.4541 -0.8903
vn 0.7946 -0.2859 -0.5355
vn 0.6308 -0.2270 -0.7420
vn 0.5679 -0.5679 -0.5957
vn 0.4371 -0.4371 -0.7860
vn -0.5679 -0.5679 -0.5957
vn -0.4371 -0.4371 -0.7860
vn -0.5679 0.5679 -0.5957
vn -0.4371 0.4371 -0.7860
vn 0.5679 0.5679 -0.5957
vn 0.4371 0.4371 -0.7860
vn 0.1342 0.4002 -0.9065
vn 0.0812 0.2427 -0.9667
vn -0.6968 0.5139 -0.5004
vn -0.5687 0.4194 -0.7076
vn -0.3879 0.7576 -0.5249
vn -0.3129 0.6112 -0.7270
vn 0.6051 0.3055 -0.7352
vn 0.4189 0.2115 -0.8831
vn 0.6093 -0.0233 -0.7926
vn 0.3953 -0.0151 -0.9184
vn 0.2693 0.1360 -0.9534
vn 0.2799 -0.1550 -0.9474
vn -0.2360 -0.4192 -0.8767
vn 0.1524 -0.0844 -0.9847
vn 0.1766 -0.0067 -0.9842
vn -0.1292 -0.2295 -0.9647
vn -0.0197 -0.2700 -0.9626
vn -0.0078 -0.1073 -0.9942
vn 0.4292 -0.1544 -0.8899
vn 0.2061 -0.0741 -0.9757
vn 0.2995 -0.2995 -0.9058
vn 0.1646 -0.1646 -0.9725
vn -0.2996 -0.2995 -0.9058
vn -0.1646 -0.1646 -0.9725
vn -0.2996 0.2995 -0.9058
vn -0.1646 0.1646 -0.9725
vn 0.2995 0.2995 -0.9058
vn 0.1646 0.1646 -0.9725
vn 0.0452 0.1350 -0.9898
vn 0.0162 0.0484 -0.9987
vn -0.4018 0.2964 -0.8664
vn -0.2076 0.1531 -0.9662
vn -0.2217 0.4330 -0.8737
vn -0.1211 0.2365 -0.9640
vn 0.1464 0.0739 -0.9864
vn 0.0450 0.0227 -0.9987
vn -0.0345 0.0674 -0.9971
vn 0.0336 -0.0013 -0.9994
vn 0.0467 -0.0258 -0.9986
vn -0.0522 0.0385 -0.9979
vn 0.0013 0.0041 -1.0000
vn 0.0491 0.0491 -0.9976
vn 0.0452 -0.0163 -0.9988
vn -0.0011 -0.0149 -0.9999
vn 0.0491 -0.0491 -0.9976
vn -0.0491 -0.0491 -0.9976
vn -0.0491 0.0491 -0.9976
vn -0.0371 -0.0659 -0.9971
usemtl None
s off
f 1/1/1 3/2/1 2/3/1
f 1/1/1 4/4/1 3/2/1
f 1/1/1 5/5/1 4/4/1
f 1/1/1 6/6/1 5/5/1
f 18/7/1 23/8/1 22/9/1
f 18/7/1 24/10/1 23/8/1
f 4/4/1 24/10/1 18/7/1
f 4/4/1 26/11/1 24/10/1
f 26/11/1 27/12/1 24/10/1
f 28/13/1 27/12/1 26/11/1
f 171/14/2 175/15/2 172/16/2
f 171/14/2 172/16/2 169/17/2
f 173/18/2 175/15/2 171/14/2
f 174/19/2 173/18/2 171/14/2
f 175/15/2 177/20/2 176/21/2
f 178/22/2 177/20/2 175/15/2
f 178/22/2 175/15/2 173/18/2
f 179/23/2 177/20/2 178/22/2
f 176/21/2 177/20/2 180/24/2
f 174/19/2 181/25/2 173/18/2
f 169/17/2 172/16/2 182/26/2
f 4/4/1 5/5/1 26/11/1
s 1
f 1/27/3 2/28/4 10/29/5 7/30/6
f 6/31/7 1/27/3 7/30/6 8/32/8
f 8/32/8 7/30/6 9/33/9 38/34/10
f 7/30/6 10/29/5 11/35/11 9/33/9
f 10/29/5 12/36/12 13/37/13 11/35/11
f 2/28/4 3/38/14 12/36/12 10/29/5
f 12/36/12 14/39/15 15/40/16 13/37/13
f 3/38/14 4/41/17 14/39/15 12/36/12
f 14/39/15 16/42/18 17/43/19 15/40/16
f 4/41/17 18/44/20 16/42/18 14/39/15
f 16/42/18 19/45/21 20/46/22 17/43/19
f 18/44/20 22/47/23 19/45/21 16/42/18
f 19/45/21 21/48/24 55/49/25 20/46/22
f 22/47/23 23/50/26 21/48/24 19/45/21
f 23/50/26 24/51/27 25/52/28 21/48/24
f 24/51/27 27/53/29 29/54/30 25/52/28
f 27/53/29 28/55/31 31/56/32 29/54/30
f 25/52/28 29/54/30 30/57/33 58/58/34
f 29/54/30 31/56/32 32/59/35 30/57/33
f 31/60/32 33/61/36 34/62/37 32/63/35
f 28/64/31 26/65/38 33/61/36 31/60/32
f 33/61/36 35/66/39 36/67/40 34/62/37
f 26/65/38 5/68/41 35/66/39 33/61/36
f 35/66/39 8/32/8 38/34/10 36/67/40
f 5/68/41 6/31/7 8/32/8 35/66/39
f 34/62/37 36/67/40 37/69/42 63/70/43
f 36/67/40 38/34/10 39/71/44 37/69/42
f 38/34/10 9/33/9 41/72/45 39/71/44
f 37/69/42 39/71/44 40/73/46 66/74/47
f 39/71/44 41/72/45 42/75/48 40/73/46
f 41/72/45 43/76/49 44/77/50 42/75/48
f 9/33/9 11/35/11 43/76/49 41/72/45
f 43/76/49 45/78/51 46/79/52 44/77/50
f 11/35/11 13/37/13 45/78/51 43/76/49
f 45/78/51 47/80/53 48/81/54 46/79/52
f 13/37/13 15/40/16 47/80/53 45/78/51
f 47/80/53 49/82/55 50/83/56 48/81/54
f 15/40/16 17/43/19 49/82/55 47/80/53
f 49/82/55 51/84/57 52/85/58 50/83/56
f 17/43/19 20/46/22 51/84/57 49/82/55
f 51/84/57 53/86/59 54/87/60 52/85/58
f 20/46/22 55/49/25 53/86/59 51/84/57
f 53/86/59 56/88/61 57/89/62 54/87/60
f 55/49/25 58/58/34 56/88/61 53/86/59
f 56/88/61 59/90/63 60/91/64 57/89/62
f 58/58/34 30/57/33 59/90/63 56/88/61
f 59/90/63 61/92/65 62/93/66 60/91/64
f 30/57/33 32/59/35 61/92/65 59/90/63
f 61/94/65 63/70/43 64/95/67 62/96/66
f 32/63/35 34/62/37 63/70/43 61/94/65
f 63/70/43 37/69/42 66/74/47 64/95/67
f 62/96/66 64/95/67 65/97/68 89/98/69
f 64/95/67 66/74/47 67/99/70 65/97/68
f 66/74/47 40/73/46 69/100/71 67/99/70
f 65/97/68 67/99/70 68/101/72 92/102/73
f 67/99/70 69/100/71 70/103/74 68/101/72
f 69/100/71 71/104/75 72/105/76 70/103/74
f 40/73/46 42/75/48 71/104/75 69/100/71
f 71/104/75 73/106/77 74/107/78 72/105/76
f 42/75/48 44/77/50 73/106/77 71/104/75
f 73/106/77 75/108/79 76/109/80 74/107/78
f 44/77/50 46/79/52 75/108/79 73/106/77
f 75/108/79 77/110/81 78/111/82 76/109/80
f 46/79/52 48/81/54 77/110/81 75/108/79
f 77/110/81 79/112/83 80/113/84 78/111/82
f 48/81/54 50/83/56 79/112/83 77/110/81
f 79/112/83 81/114/85 82/115/86 80/113/84
f 50/83/56 52/85/58 81/114/85 79/112/83
f 81/114/85 83/116/87 84/117/88 82/115/86
f 52/85/58 54/87/60 83/116/87 81/114/85
f 83/116/87 85/118/89 86/119/90 84/117/88
f 54/87/60 57/89/62 85/118/89 83/116/87
f 85/118/89 87/120/91 88/121/92 86/119/90
f 57/89/62 60/91/64 87/120/91 85/118/89
f 87/120/91 89/122/69 90/123/93 88/121/92
f 60/91/64 62/93/66 89/122/69 87/120/91
f 89/98/69 65/97/68 92/102/73 90/124/93
f 88/121/92 90/123/93 91/125/94 115/126/95
f 90/124/93 92/102/73 93/127/96 91/128/94
f 92/102/73 68/101/72 95/129/97 93/127/96
f 91/128/94 93/127/96 94/130/98 118/131/99
f 93/127/96 95/129/97 96/132/100 94/130/98
f 95/129/97 97/133/101 98/134/102 96/132/100
f 68/101/72 70/103/74 97/133/101 95/129/97
f 97/133/101 99/135/103 100/136/104 98/134/102
f 70/103/74 72/105/76 99/135/103 97/133/101
f 99/135/103 101/137/105 102/138/106 100/136/104
f 72/105/76 74/107/78 101/137/105 99/135/103
f 101/137/105 103/139/107 104/140/108 102/138/106
f 74/107/78 76/109/80 103/139/107 101/137/105
f 103/139/107 105/141/109 106/142/110 104/140/108
f 76/109/80 78/111/82 105/141/109 103/139/107
f 105/141/109 107/143/111 108/144/112 106/142/110
f 78/111/82 80/113/84 107/143/111 105/141/109
f 107/143/111 109/145/113 110/146/114 108/144/112
f 80/113/84 82/115/86 109/145/113 107/143/111
f 109/145/113 111/147/115 112/148/116 110/146/114
f 82/115/86 84/117/88 111/147/115 109/145/113
f 111/147/115 113/149/117 114/150/118 112/148/116
f 84/117/88 86/119/90 113/149/117 111/147/115
f 113/149/117 115/126/95 116/151/119 114/150/118
f 86/119/90 88/121/92 115/126/95 113/149/117
f 115/126/95 91/125/94 118/152/99 116/151/119
f 114/150/118 116/151/119 117/153/120 141/154/121
f 116/151/119 118/152/99 119/155/122 117/153/120
f 118/131/99 94/130/98 121/156/123 119/157/122
f 117/153/120 119/155/122 120/158/124 144/159/125
f 119/157/122 121/156/123 122/160/126 120/161/124
f 121/156/123 123/162/127 124/163/128 122/160/126
f 94/130/98 96/132/100 123/162/127 121/156/123
f 123/162/127 125/164/129 126/165/130 124/163/128
f 96/132/100 98/134/102 125/164/129 123/162/127
f 125/164/129 127/166/131 128/167/132 126/165/130
f 98/134/102 100/136/104 127/166/131 125/164/129
f 127/166/131 129/168/133 130/169/134 128/167/132
f 100/136/104 102/138/106 129/168/133 127/166/131
f 129/168/133 131/170/135 132/171/136 130/169/134
f 102/138/106 104/140/108 131/170/135 129/168/133
f 131/170/135 133/172/137 134/173/138 132/171/136
f 104/140/108 106/142/110 133/172/137 131/170/135
f 133/172/137 135/174/139 136/175/140 134/173/138
f 106/142/110 108/144/112 135/174/139 133/172/137
f 135/174/139 137/176/141 138/177/142 136/175/140
f 108/144/112 110/146/114 137/176/141 135/174/139
f 137/176/141 139/178/143 140/179/144 138/177/142
f 110/146/114 112/148/116 139/178/143 137/176/141
f 139/178/143 141/154/121 142/180/145 140/179/144
f 112/148/116 114/150/118 141/154/121 139/178/143
f 141/154/121 117/153/120 144/159/125 142/180/145
f 140/179/144 142/180/145 143/181/146 167/182/147
f 142/180/145 144/159/125 145/183/148 143/181/146
f 144/159/125 120/158/124 147/184/149 145/183/148
f 143/181/146 145/183/148 146/185/150 170/186/151
f 145/183/148 147/184/149 148/187/152 146/185/150
f 147/188/149 149/189/153 150/190/154 148/191/152
f 120/161/124 122/160/126 149/189/153 147/188/149
f 149/189/153 151/192/155 152/193/156 150/190/154
f 122/160/126 124/163/128 151/192/155 149/189/153
f 151/192/155 153/194/157 154/195/158 152/193/156
f 124/163/128 126/165/130 153/194/157 151/192/155
f 153/194/157 155/196/159 156/197/160 154/195/158
f 126/165/130 128/167/132 155/196/159 153/194/157
f 155/196/159 157/198/161 158/199/162 156/197/160
f 128/167/132 130/169/134 157/198/161 155/196/159
f 157/198/161 159/200/163 160/201/164 158/199/162
f 130/169/134 132/171/136 159/200/163 157/198/161
f 159/200/163 161/202/165 162/203/166 160/201/164
f 132/171/136 134/173/138 161/202/165 159/200/163
f 161/202/165 163/204/167 164/205/168 162/203/166
f 134/173/138 136/175/140 163/204/167 161/202/165
f 163/204/167 165/206/169 166/207/170 164/205/168
f 136/175/140 138/177/142 165/206/169 163/204/167
f 165/206/169 167/182/147 168/208/171 166/207/170
f 138/177/142 140/179/144 167/182/147 165/206/169
f 167/182/147 143/181/146 170/186/151 168/208/171
f 166/207/170 168/208/171 169/209/172 182/210/173
f 168/208/171 170/186/151 171/211/174 169/209/172
f 170/186/151 146/185/150 174/212/175 171/211/174
f 162/203/166 164/205/168 172/213/176 175/214/177
f 160/201/164 162/203/166 175/214/177 176/215/178
f 150/190/154 152/193/156 178/216/179 173/217/180
f 152/193/156 154/195/158 179/218/181 178/216/179
f 154/195/158 156/197/160 177/219/182 179/218/181
f 156/197/160 158/199/162 180/220/183 177/219/182
f 158/199/162 160/201/164 176/215/178 180/220/183
f 146/185/150 148/187/152 181/221/184 174/212/175
f 148/191/152 150/190/154 173/217/180 181/25/184
f 164/205/168 166/207/170 182/210/173 172/213/176
f 21/48/24 25/52/28 58/58/34 55/49/25
