# Blender v2.91.2 OBJ File: 'Letters.blend'
# www.blender.org
mtllib Z.mtl
o Text_Text.051
v 0.156966 -0.220118 0.210000
v -0.151952 -0.257881 0.210000
v -0.151952 -0.217569 0.210000
v 0.099255 0.219676 0.210000
v -0.149377 0.219676 0.210000
v -0.149377 0.257807 0.210000
v 0.147032 0.257807 0.210000
v 0.147032 0.218595 -0.210000
v 0.156966 -0.220117 -0.210000
v -0.151952 -0.257881 -0.210000
v -0.151952 -0.217569 -0.210000
v 0.099255 0.219676 -0.210000
v -0.149377 0.257807 -0.210000
v 0.149620 0.217905 -0.209659
v 0.152032 0.217263 -0.208660
v 0.154103 0.216711 -0.207071
v 0.155692 0.216288 -0.205000
v 0.156692 0.216022 -0.202588
v 0.157032 0.215931 -0.200000
v 0.157032 0.215931 0.200000
v 0.156692 0.216022 0.202588
v 0.155692 0.216288 0.205000
v 0.154103 0.216711 0.207071
v 0.152032 0.217263 0.208660
v 0.149620 0.217905 0.209659
v 0.147032 0.218595 0.210000
v -0.104527 -0.220117 -0.210000
v -0.100059 -0.217529 -0.209659
v -0.095896 -0.215117 -0.208660
v -0.092320 -0.213046 -0.207071
v -0.089578 -0.211457 -0.205000
v -0.087853 -0.210458 -0.202588
v -0.087265 -0.210118 -0.200000
v -0.087265 -0.210118 0.200000
v -0.087853 -0.210458 0.202588
v -0.089578 -0.211457 0.205000
v -0.092320 -0.213046 0.207071
v -0.095896 -0.215118 0.208660
v -0.100059 -0.217529 0.209659
v -0.104527 -0.220118 0.210000
v 0.159554 -0.217529 -0.209659
v 0.161966 -0.215117 -0.208660
v 0.164038 -0.213046 -0.207071
v 0.165627 -0.211457 -0.205000
v 0.166626 -0.210458 -0.202588
v 0.166966 -0.210118 -0.200000
v 0.166966 -0.210118 0.200000
v 0.166626 -0.210458 0.202588
v 0.165627 -0.211457 0.205000
v 0.164038 -0.213046 0.207071
v 0.161966 -0.215118 0.208660
v 0.159554 -0.217529 0.209659
v 0.156966 -0.257881 -0.210000
v 0.159554 -0.260469 -0.209659
v 0.161966 -0.262881 -0.208660
v 0.164038 -0.264952 -0.207071
v 0.165627 -0.266541 -0.205000
v 0.166626 -0.267540 -0.202588
v 0.166966 -0.267881 -0.200000
v 0.166966 -0.267881 0.200000
v 0.166626 -0.267540 0.202588
v 0.165627 -0.266541 0.205000
v 0.164038 -0.264952 0.207071
v 0.161966 -0.262881 0.208660
v 0.159554 -0.260469 0.209659
v 0.156966 -0.257881 0.210000
v -0.154540 -0.260469 -0.209659
v -0.156952 -0.262881 -0.208660
v -0.159023 -0.264952 -0.207071
v -0.160612 -0.266541 -0.205000
v -0.161612 -0.267540 -0.202588
v -0.161952 -0.267881 -0.200000
v -0.161952 -0.267881 0.200000
v -0.161612 -0.267540 0.202588
v -0.160612 -0.266541 0.205000
v -0.159023 -0.264952 0.207071
v -0.156952 -0.262881 0.208660
v -0.154540 -0.260469 0.209659
v -0.154540 -0.216878 -0.209659
v -0.156952 -0.216234 -0.208660
v -0.159023 -0.215682 -0.207071
v -0.160612 -0.215258 -0.205000
v -0.161612 -0.214991 -0.202588
v -0.161952 -0.214900 -0.200000
v -0.161952 -0.214900 0.200000
v -0.161612 -0.214991 0.202588
v -0.160612 -0.215258 0.205000
v -0.159023 -0.215682 0.207071
v -0.156952 -0.216235 0.208660
v -0.154540 -0.216878 0.209659
v 0.094783 0.217088 -0.209659
v 0.090616 0.214676 -0.208660
v 0.087037 0.212605 -0.207071
v 0.084291 0.211016 -0.205000
v 0.082565 0.210017 -0.202588
v 0.081977 0.209676 -0.200000
v 0.081977 0.209676 0.200000
v 0.082565 0.210017 0.202588
v 0.084291 0.211016 0.205000
v 0.087037 0.212605 0.207071
v 0.090616 0.214676 0.208660
v 0.094783 0.217088 0.209659
v -0.149377 0.219676 -0.210000
v -0.151965 0.217088 -0.209659
v -0.154377 0.214676 -0.208660
v -0.156448 0.212605 -0.207071
v -0.158037 0.211016 -0.205000
v -0.159037 0.210017 -0.202588
v -0.159377 0.209676 -0.200000
v -0.159377 0.209676 0.200000
v -0.159037 0.210017 0.202588
v -0.158037 0.211016 0.205000
v -0.156448 0.212605 0.207071
v -0.154377 0.214676 0.208660
v -0.151965 0.217088 0.209659
v -0.151965 0.260396 -0.209659
v -0.154377 0.262807 -0.208660
v -0.156448 0.264878 -0.207071
v -0.158037 0.266468 -0.205000
v -0.159037 0.267467 -0.202588
v -0.159377 0.267807 -0.200000
v -0.159377 0.267807 0.200000
v -0.159037 0.267467 0.202588
v -0.158037 0.266468 0.205000
v -0.156448 0.264878 0.207071
v -0.154377 0.262807 0.208660
v -0.151965 0.260396 0.209659
v 0.147032 0.257807 -0.210000
v 0.149620 0.260396 -0.209659
v 0.152032 0.262807 -0.208660
v 0.154103 0.264878 -0.207071
v 0.155692 0.266468 -0.205000
v 0.156692 0.267467 -0.202588
v 0.157032 0.267807 -0.200000
v 0.157032 0.267807 0.200000
v 0.156692 0.267467 0.202588
v 0.155692 0.266468 0.205000
v 0.154103 0.264878 0.207071
v 0.152032 0.262807 0.208660
v 0.149620 0.260396 0.209659
vt 0.777778 0.000000
vt 1.000000 0.000000
vt 0.888889 0.000000
vt 0.666667 0.000000
vt 0.000000 0.000000
vt 0.555556 0.000000
vt 0.111111 0.000000
vt 0.444444 0.000000
vt 0.222222 0.000000
vt 0.333333 0.000000
vt 1.000000 0.000000
vt 0.777778 0.000000
vt 0.888889 0.000000
vt 0.666667 0.000000
vt 0.000000 0.000000
vt 0.555556 0.000000
vt 0.111111 0.000000
vt 0.444444 0.000000
vt 0.222222 0.000000
vt 0.333333 0.000000
vt 0.000000 0.076923
vt 0.100000 0.076923
vt 0.100000 0.000000
vt 0.000000 0.153846
vt 0.100000 0.153846
vt 0.000000 0.230769
vt 0.100000 0.230769
vt 0.000000 0.307692
vt 0.100000 0.307692
vt 0.000000 0.384615
vt 0.100000 0.384615
vt 0.000000 0.461538
vt 0.100000 0.461538
vt 0.000000 0.538462
vt 0.100000 0.538462
vt 0.000000 0.615385
vt 0.100000 0.615385
vt 0.000000 0.692308
vt 0.100000 0.692308
vt 0.000000 0.769231
vt 0.100000 0.769231
vt 0.000000 0.846154
vt 0.100000 0.846154
vt 0.000000 0.923077
vt 0.100000 0.923077
vt 0.000000 1.000000
vt 0.100000 1.000000
vt 0.200000 0.076923
vt 0.200000 0.000000
vt 0.200000 0.153846
vt 0.200000 0.230769
vt 0.200000 0.307692
vt 0.200000 0.384615
vt 0.200000 0.461538
vt 0.200000 0.538462
vt 0.200000 0.615385
vt 0.200000 0.692308
vt 0.200000 0.769231
vt 0.200000 0.846154
vt 0.200000 0.923077
vt 0.200000 1.000000
vt 0.300000 0.076923
vt 0.300000 0.000000
vt 0.300000 0.153846
vt 0.300000 0.230769
vt 0.300000 0.307692
vt 0.300000 0.384615
vt 0.300000 0.461538
vt 0.300000 0.538462
vt 0.300000 0.615385
vt 0.300000 0.692308
vt 0.300000 0.769231
vt 0.300000 0.846154
vt 0.300000 0.923077
vt 0.300000 1.000000
vt 0.400000 0.076923
vt 0.400000 0.000000
vt 0.400000 0.153846
vt 0.400000 0.230769
vt 0.400000 0.307692
vt 0.400000 0.384615
vt 0.400000 0.461538
vt 0.400000 0.538462
vt 0.400000 0.615385
vt 0.400000 0.692308
vt 0.400000 0.769231
vt 0.400000 0.846154
vt 0.400000 0.923077
vt 0.400000 1.000000
vt 0.500000 0.076923
vt 0.500000 0.000000
vt 0.500000 0.153846
vt 0.500000 0.230769
vt 0.500000 0.307692
vt 0.500000 0.384615
vt 0.500000 0.461538
vt 0.500000 0.538462
vt 0.500000 0.615385
vt 0.500000 0.692308
vt 0.500000 0.769231
vt 0.500000 0.846154
vt 0.500000 0.923077
vt 0.500000 1.000000
vt 0.600000 0.076923
vt 0.600000 0.000000
vt 0.600000 0.153846
vt 0.600000 0.230769
vt 0.600000 0.307692
vt 0.600000 0.384615
vt 0.600000 0.461538
vt 0.600000 0.538462
vt 0.600000 0.615385
vt 0.600000 0.692308
vt 0.600000 0.769231
vt 0.600000 0.846154
vt 0.600000 0.923077
vt 0.600000 1.000000
vt 0.700000 0.076923
vt 0.700000 0.000000
vt 0.700000 0.153846
vt 0.700000 0.230769
vt 0.700000 0.307692
vt 0.700000 0.384615
vt 0.700000 0.461538
vt 0.700000 0.538462
vt 0.700000 0.615385
vt 0.700000 0.692308
vt 0.700000 0.769231
vt 0.700000 0.846154
vt 0.700000 0.923077
vt 0.700000 1.000000
vt 0.800000 0.076923
vt 0.800000 0.000000
vt 0.800000 0.153846
vt 0.800000 0.230769
vt 0.800000 0.307692
vt 0.800000 0.384615
vt 0.800000 0.461538
vt 0.800000 0.538462
vt 0.800000 0.615385
vt 0.800000 0.692308
vt 0.800000 0.769231
vt 0.800000 0.846154
vt 0.800000 0.923077
vt 0.800000 1.000000
vt 0.900000 0.076923
vt 0.900000 0.000000
vt 0.900000 0.153846
vt 0.900000 0.230769
vt 0.900000 0.307692
vt 0.900000 0.384615
vt 0.900000 0.461538
vt 0.900000 0.538462
vt 0.900000 0.615385
vt 0.900000 0.692308
vt 0.900000 0.769231
vt 0.900000 0.846154
vt 0.900000 0.923077
vt 0.900000 1.000000
vt 1.000000 0.076923
vt 1.000000 0.000000
vt 1.000000 0.153846
vt 1.000000 0.230769
vt 1.000000 0.307692
vt 1.000000 0.384615
vt 1.000000 0.461538
vt 1.000000 0.538462
vt 1.000000 0.615385
vt 1.000000 0.692308
vt 1.000000 0.769231
vt 1.000000 0.846154
vt 1.000000 0.923077
vt 1.000000 1.000000
vn 0.0000 0.0000 1.0000
vn 0.0000 0.0000 -1.0000
vn 0.2613 -0.0696 -0.9627
vn 0.0772 0.0447 -0.9960
vn 0.0095 0.0055 -0.9999
vn 0.0711 -0.0190 -0.9973
vn 0.4865 -0.1296 -0.8640
vn 0.2006 0.1162 -0.9727
vn 0.6823 -0.1817 -0.7081
vn 0.3453 0.2001 -0.9169
vn 0.8351 -0.2224 -0.5031
vn 0.5272 0.3054 -0.7929
vn 0.9327 -0.2484 -0.2614
vn 0.7420 0.4299 -0.5144
vn 0.9641 -0.2568 -0.0669
vn 0.8570 0.4965 -0.1381
vn 0.9641 -0.2568 0.0669
vn 0.8570 0.4965 0.1381
vn 0.9327 -0.2484 0.2614
vn 0.7420 0.4299 0.5144
vn 0.8351 -0.2224 0.5031
vn 0.5272 0.3054 0.7929
vn 0.6823 -0.1817 0.7081
vn 0.3453 0.2001 0.9169
vn 0.4865 -0.1296 0.8640
vn 0.2006 0.1162 0.9727
vn 0.2613 -0.0696 0.9627
vn 0.0772 0.0447 0.9960
vn 0.0711 -0.0190 0.9973
vn 0.0095 0.0055 0.9999
vn 0.1646 0.1646 -0.9725
vn 0.0491 0.0491 -0.9976
vn 0.2995 0.2995 -0.9058
vn 0.4371 0.4371 -0.7860
vn 0.5679 0.5679 -0.5958
vn 0.6684 0.6684 -0.3262
vn 0.7043 0.7043 -0.0883
vn 0.7043 0.7043 0.0883
vn 0.6684 0.6684 0.3262
vn 0.5679 0.5679 0.5958
vn 0.4371 0.4371 0.7860
vn 0.2995 0.2995 0.9058
vn 0.1646 0.1646 0.9725
vn 0.0491 0.0491 0.9976
vn 0.1646 -0.1646 -0.9725
vn 0.0491 -0.0491 -0.9976
vn 0.2995 -0.2995 -0.9058
vn 0.4371 -0.4371 -0.7860
vn 0.5679 -0.5679 -0.5958
vn 0.6684 -0.6684 -0.3262
vn 0.7043 -0.7043 -0.0883
vn 0.7043 -0.7043 0.0883
vn 0.6684 -0.6684 0.3262
vn 0.5679 -0.5679 0.5958
vn 0.4371 -0.4371 0.7860
vn 0.2995 -0.2995 0.9058
vn 0.1646 -0.1646 0.9725
vn 0.0491 -0.0491 0.9976
vn -0.1646 -0.1646 -0.9725
vn -0.0491 -0.0491 -0.9976
vn -0.2995 -0.2995 -0.9058
vn -0.4371 -0.4371 -0.7860
vn -0.5679 -0.5679 -0.5958
vn -0.6684 -0.6684 -0.3262
vn -0.7043 -0.7043 -0.0883
vn -0.7043 -0.7043 0.0883
vn -0.6684 -0.6684 0.3262
vn -0.5679 -0.5679 0.5958
vn -0.4371 -0.4371 0.7860
vn -0.2995 -0.2995 0.9058
vn -0.1646 -0.1646 0.9725
vn -0.0491 -0.0491 0.9976
vn -0.2612 0.0697 -0.9627
vn -0.0711 0.0190 -0.9973
vn -0.4864 0.1298 -0.8640
vn -0.6822 0.1820 -0.7081
vn -0.8350 0.2228 -0.5031
vn -0.9326 0.2488 -0.2614
vn -0.9640 0.2572 -0.0669
vn -0.9640 0.2572 0.0669
vn -0.9326 0.2488 0.2614
vn -0.8350 0.2228 0.5031
vn -0.6822 0.1820 0.7081
vn -0.4864 0.1298 0.8640
vn -0.2612 0.0697 0.9627
vn -0.0711 0.0190 0.9973
vn -0.0771 -0.0446 -0.9960
vn -0.0095 -0.0055 -0.9999
vn -0.2005 -0.1160 -0.9728
vn -0.3452 -0.1998 -0.9170
vn -0.5271 -0.3050 -0.7931
vn -0.7421 -0.4295 -0.5146
vn -0.8572 -0.4961 -0.1381
vn -0.8572 -0.4961 0.1381
vn -0.7421 -0.4295 0.5146
vn -0.5271 -0.3050 0.7931
vn -0.3452 -0.1998 0.9170
vn -0.2005 -0.1160 0.9728
vn -0.0771 -0.0446 0.9960
vn -0.0095 -0.0055 0.9999
vn -0.1646 0.1646 -0.9725
vn -0.0491 0.0491 -0.9976
vn -0.2995 0.2995 -0.9058
vn -0.4371 0.4371 -0.7860
vn -0.5679 0.5679 -0.5958
vn -0.6684 0.6684 -0.3262
vn -0.7043 0.7043 -0.0883
vn -0.7043 0.7043 0.0883
vn -0.6684 0.6684 0.3262
vn -0.5679 0.5679 0.5958
vn -0.4371 0.4371 0.7860
vn -0.2995 0.2995 0.9058
vn -0.1646 0.1646 0.9725
vn -0.0491 0.0491 0.9976
usemtl None
s off
f 5/1/1 7/2/1 6/3/1
f 5/1/1 4/4/1 7/2/1
f 4/4/1 26/5/1 7/2/1
f 3/6/1 26/5/1 4/4/1
f 3/6/1 40/7/1 26/5/1
f 2/8/1 40/7/1 3/6/1
f 2/8/1 1/9/1 40/7/1
f 2/8/1 66/10/1 1/9/1
f 128/11/2 103/12/2 13/13/2
f 12/14/2 103/12/2 128/11/2
f 8/15/2 12/14/2 128/11/2
f 8/15/2 11/16/2 12/14/2
f 27/17/2 11/16/2 8/15/2
f 27/17/2 10/18/2 11/16/2
f 9/19/2 10/18/2 27/17/2
f 53/20/2 10/18/2 9/19/2
s 1
f 14/21/3 28/22/4 27/23/5 8/15/6
f 15/24/7 29/25/8 28/22/4 14/21/3
f 16/26/9 30/27/10 29/25/8 15/24/7
f 17/28/11 31/29/12 30/27/10 16/26/9
f 18/30/13 32/31/14 31/29/12 17/28/11
f 19/32/15 33/33/16 32/31/14 18/30/13
f 20/34/17 34/35/18 33/33/16 19/32/15
f 21/36/19 35/37/20 34/35/18 20/34/17
f 22/38/21 36/39/22 35/37/20 21/36/19
f 23/40/23 37/41/24 36/39/22 22/38/21
f 24/42/25 38/43/26 37/41/24 23/40/23
f 25/44/27 39/45/28 38/43/26 24/42/25
f 26/46/29 40/47/30 39/45/28 25/44/27
f 28/22/4 41/48/31 9/49/32 27/23/5
f 29/25/8 42/50/33 41/48/31 28/22/4
f 30/27/10 43/51/34 42/50/33 29/25/8
f 31/29/12 44/52/35 43/51/34 30/27/10
f 32/31/14 45/53/36 44/52/35 31/29/12
f 33/33/16 46/54/37 45/53/36 32/31/14
f 34/35/18 47/55/38 46/54/37 33/33/16
f 35/37/20 48/56/39 47/55/38 34/35/18
f 36/39/22 49/57/40 48/56/39 35/37/20
f 37/41/24 50/58/41 49/57/40 36/39/22
f 38/43/26 51/59/42 50/58/41 37/41/24
f 39/45/28 52/60/43 51/59/42 38/43/26
f 40/47/30 1/61/44 52/60/43 39/45/28
f 41/48/31 54/62/45 53/63/46 9/49/32
f 42/50/33 55/64/47 54/62/45 41/48/31
f 43/51/34 56/65/48 55/64/47 42/50/33
f 44/52/35 57/66/49 56/65/48 43/51/34
f 45/53/36 58/67/50 57/66/49 44/52/35
f 46/54/37 59/68/51 58/67/50 45/53/36
f 47/55/38 60/69/52 59/68/51 46/54/37
f 48/56/39 61/70/53 60/69/52 47/55/38
f 49/57/40 62/71/54 61/70/53 48/56/39
f 50/58/41 63/72/55 62/71/54 49/57/40
f 51/59/42 64/73/56 63/72/55 50/58/41
f 52/60/43 65/74/57 64/73/56 51/59/42
f 1/61/44 66/75/58 65/74/57 52/60/43
f 54/62/45 67/76/59 10/77/60 53/63/46
f 55/64/47 68/78/61 67/76/59 54/62/45
f 56/65/48 69/79/62 68/78/61 55/64/47
f 57/66/49 70/80/63 69/79/62 56/65/48
f 58/67/50 71/81/64 70/80/63 57/66/49
f 59/68/51 72/82/65 71/81/64 58/67/50
f 60/69/52 73/83/66 72/82/65 59/68/51
f 61/70/53 74/84/67 73/83/66 60/69/52
f 62/71/54 75/85/68 74/84/67 61/70/53
f 63/72/55 76/86/69 75/85/68 62/71/54
f 64/73/56 77/87/70 76/86/69 63/72/55
f 65/74/57 78/88/71 77/87/70 64/73/56
f 66/75/58 2/89/72 78/88/71 65/74/57
f 67/76/59 79/90/73 11/91/74 10/77/60
f 68/78/61 80/92/75 79/90/73 67/76/59
f 69/79/62 81/93/76 80/92/75 68/78/61
f 70/80/63 82/94/77 81/93/76 69/79/62
f 71/81/64 83/95/78 82/94/77 70/80/63
f 72/82/65 84/96/79 83/95/78 71/81/64
f 73/83/66 85/97/80 84/96/79 72/82/65
f 74/84/67 86/98/81 85/97/80 73/83/66
f 75/85/68 87/99/82 86/98/81 74/84/67
f 76/86/69 88/100/83 87/99/82 75/85/68
f 77/87/70 89/101/84 88/100/83 76/86/69
f 78/88/71 90/102/85 89/101/84 77/87/70
f 2/89/72 3/103/86 90/102/85 78/88/71
f 79/90/73 91/104/87 12/105/88 11/91/74
f 80/92/75 92/106/89 91/104/87 79/90/73
f 81/93/76 93/107/90 92/106/89 80/92/75
f 82/94/77 94/108/91 93/107/90 81/93/76
f 83/95/78 95/109/92 94/108/91 82/94/77
f 84/96/79 96/110/93 95/109/92 83/95/78
f 85/97/80 97/111/94 96/110/93 84/96/79
f 86/98/81 98/112/95 97/111/94 85/97/80
f 87/99/82 99/113/96 98/112/95 86/98/81
f 88/100/83 100/114/97 99/113/96 87/99/82
f 89/101/84 101/115/98 100/114/97 88/100/83
f 90/102/85 102/116/99 101/115/98 89/101/84
f 3/103/86 4/117/100 102/116/99 90/102/85
f 91/104/87 104/118/59 103/119/60 12/105/88
f 92/106/89 105/120/61 104/118/59 91/104/87
f 93/107/90 106/121/62 105/120/61 92/106/89
f 94/108/91 107/122/63 106/121/62 93/107/90
f 95/109/92 108/123/64 107/122/63 94/108/91
f 96/110/93 109/124/65 108/123/64 95/109/92
f 97/111/94 110/125/66 109/124/65 96/110/93
f 98/112/95 111/126/67 110/125/66 97/111/94
f 99/113/96 112/127/68 111/126/67 98/112/95
f 100/114/97 113/128/69 112/127/68 99/113/96
f 101/115/98 114/129/70 113/128/69 100/114/97
f 102/116/99 115/130/71 114/129/70 101/115/98
f 4/117/100 5/131/72 115/130/71 102/116/99
f 104/118/59 116/132/101 13/133/102 103/119/60
f 105/120/61 117/134/103 116/132/101 104/118/59
f 106/121/62 118/135/104 117/134/103 105/120/61
f 107/122/63 119/136/105 118/135/104 106/121/62
f 108/123/64 120/137/106 119/136/105 107/122/63
f 109/124/65 121/138/107 120/137/106 108/123/64
f 110/125/66 122/139/108 121/138/107 109/124/65
f 111/126/67 123/140/109 122/139/108 110/125/66
f 112/127/68 124/141/110 123/140/109 111/126/67
f 113/128/69 125/142/111 124/141/110 112/127/68
f 114/129/70 126/143/112 125/142/111 113/128/69
f 115/130/71 127/144/113 126/143/112 114/129/70
f 5/131/72 6/145/114 127/144/113 115/130/71
f 116/132/101 129/146/31 128/147/32 13/133/102
f 117/134/103 130/148/33 129/146/31 116/132/101
f 118/135/104 131/149/34 130/148/33 117/134/103
f 119/136/105 132/150/35 131/149/34 118/135/104
f 120/137/106 133/151/36 132/150/35 119/136/105
f 121/138/107 134/152/37 133/151/36 120/137/106
f 122/139/108 135/153/38 134/152/37 121/138/107
f 123/140/109 136/154/39 135/153/38 122/139/108
f 124/141/110 137/155/40 136/154/39 123/140/109
f 125/142/111 138/156/41 137/155/40 124/141/110
f 126/143/112 139/157/42 138/156/41 125/142/111
f 127/144/113 140/158/43 139/157/42 126/143/112
f 6/145/114 7/159/44 140/158/43 127/144/113
f 129/146/31 14/160/3 8/161/6 128/147/32
f 130/148/33 15/162/7 14/160/3 129/146/31
f 131/149/34 16/163/9 15/162/7 130/148/33
f 132/150/35 17/164/11 16/163/9 131/149/34
f 133/151/36 18/165/13 17/164/11 132/150/35
f 134/152/37 19/166/15 18/165/13 133/151/36
f 135/153/38 20/167/17 19/166/15 134/152/37
f 136/154/39 21/168/19 20/167/17 135/153/38
f 137/155/40 22/169/21 21/168/19 136/154/39
f 138/156/41 23/170/23 22/169/21 137/155/40
f 139/157/42 24/171/25 23/170/23 138/156/41
f 140/158/43 25/172/27 24/171/25 139/157/42
f 7/159/44 26/173/29 25/172/27 140/158/43
